<svg version="1.1" viewBox="0.0 0.0 960.0 540.0" fill="none" stroke="none" stroke-linecap="square" stroke-miterlimit="10" xmlns:xlink="http://www.w3.org/1999/xlink" xmlns="http://www.w3.org/2000/svg"><clipPath id="g36c326e7edb_0_11.0"><path d="m0 0l960.0 0l0 540.0l-960.0 0l0 -540.0z" clip-rule="nonzero"/></clipPath><g clip-path="url(#g36c326e7edb_0_11.0)"><path d="m0 0l960.0 0l0 540.0l-960.0 0z" fill-rule="evenodd"/><path fill="#fff" fill-opacity="0.0" d="m889.4969 489.57657l57.606323 0l0 41.322845l-57.606323 0z" fill-rule="evenodd"/><path fill="#100c00" d="m297.61942 71.698166l0 0c0 -6.923134 6.084717 -12.535435 13.590546 -12.535435l0 0c7.5058594 0 13.590576 5.612301 13.590576 12.535435l0 0c0 6.923126 -6.084717 12.535431 -13.590576 12.535431l0 0c-7.505829 0 -13.590546 -5.6123047 -13.590546 -12.535431z" fill-rule="evenodd"/><path stroke="#fff" stroke-width="1.0" stroke-linejoin="round" stroke-linecap="butt" d="m297.61942 71.698166l0 0c0 -6.923134 6.084717 -12.535435 13.590546 -12.535435l0 0c7.5058594 0 13.590576 5.612301 13.590576 12.535435l0 0c0 6.923126 -6.084717 12.535431 -13.590576 12.535431l0 0c-7.505829 0 -13.590546 -5.6123047 -13.590546 -12.535431z" fill-rule="evenodd"/><path fill="#100c00" d="m200.4252 159.83464l0 0c0 -6.923126 6.0846863 -12.535431 13.590546 -12.535431l0 0c7.5058594 0 13.590546 5.6123047 13.590546 12.535431l0 0c0 6.923126 -6.0846863 12.535431 -13.590546 12.535431l0 0c-7.5058594 0 -13.590546 -5.6123047 -13.590546 -12.535431z" fill-rule="evenodd"/><path stroke="#fff" stroke-width="1.0" stroke-linejoin="round" stroke-linecap="butt" d="m200.4252 159.83464l0 0c0 -6.923126 6.0846863 -12.535431 13.590546 -12.535431l0 0c7.5058594 0 13.590546 5.6123047 13.590546 12.535431l0 0c0 6.923126 -6.0846863 12.535431 -13.590546 12.535431l0 0c-7.5058594 0 -13.590546 -5.6123047 -13.590546 -12.535431z" fill-rule="evenodd"/><path fill="#100c00" d="m431.03674 175.53543l0 0c0 -6.923126 6.0846863 -12.535431 13.590546 -12.535431l0 0c7.5058594 0 13.590546 5.6123047 13.590546 12.535431l0 0c0 6.923126 -6.0846863 12.535431 -13.590546 12.535431l0 0c-7.5058594 0 -13.590546 -5.6123047 -13.590546 -12.535431z" fill-rule="evenodd"/><path stroke="#fff" stroke-width="1.0" stroke-linejoin="round" stroke-linecap="butt" d="m431.03674 175.53543l0 0c0 -6.923126 6.0846863 -12.535431 13.590546 -12.535431l0 0c7.5058594 0 13.590546 5.6123047 13.590546 12.535431l0 0c0 6.923126 -6.0846863 12.535431 -13.590546 12.535431l0 0c-7.5058594 0 -13.590546 -5.6123047 -13.590546 -12.535431z" fill-rule="evenodd"/><path fill="#100c00" d="m313.62204 249.94357l0 0c0 -6.923126 6.084717 -12.535431 13.590546 -12.535431l0 0c7.5058594 0 13.590576 5.6123047 13.590576 12.535431l0 0c0 6.923126 -6.084717 12.535431 -13.590576 12.535431l0 0c-7.505829 0 -13.590546 -5.6123047 -13.590546 -12.535431z" fill-rule="evenodd"/><path stroke="#fff" stroke-width="1.0" stroke-linejoin="round" stroke-linecap="butt" d="m313.62204 249.94357l0 0c0 -6.923126 6.084717 -12.535431 13.590546 -12.535431l0 0c7.5058594 0 13.590576 5.6123047 13.590576 12.535431l0 0c0 6.923126 -6.084717 12.535431 -13.590576 12.535431l0 0c-7.505829 0 -13.590546 -5.6123047 -13.590546 -12.535431z" fill-rule="evenodd"/><path fill="#100c00" d="m488.43832 299.90027l0 0c0 -6.923126 6.0846863 -12.535431 13.590546 -12.535431l0 0c7.5058594 0 13.590576 5.6123047 13.590576 12.535431l0 0c0 6.923126 -6.084717 12.535431 -13.590576 12.535431l0 0c-7.5058594 0 -13.590546 -5.6123047 -13.590546 -12.535431z" fill-rule="evenodd"/><path stroke="#fff" stroke-width="1.0" stroke-linejoin="round" stroke-linecap="butt" d="m488.43832 299.90027l0 0c0 -6.923126 6.0846863 -12.535431 13.590546 -12.535431l0 0c7.5058594 0 13.590576 5.6123047 13.590576 12.535431l0 0c0 6.923126 -6.084717 12.535431 -13.590576 12.535431l0 0c-7.5058594 0 -13.590546 -5.6123047 -13.590546 -12.535431z" fill-rule="evenodd"/><path fill="#100c00" d="m135.83989 280.88452l0 0c0 -6.923126 6.0847015 -12.535431 13.590561 -12.535431l0 0c7.505844 0 13.590546 5.6123047 13.590546 12.535431l0 0c0 6.923126 -6.0847015 12.535431 -13.590546 12.535431l0 0c-7.5058594 0 -13.590561 -5.6123047 -13.590561 -12.535431z" fill-rule="evenodd"/><path stroke="#fff" stroke-width="1.0" stroke-linejoin="round" stroke-linecap="butt" d="m135.83989 280.88452l0 0c0 -6.923126 6.0847015 -12.535431 13.590561 -12.535431l0 0c7.505844 0 13.590546 5.6123047 13.590546 12.535431l0 0c0 6.923126 -6.0847015 12.535431 -13.590546 12.535431l0 0c-7.5058594 0 -13.590561 -5.6123047 -13.590561 -12.535431z" fill-rule="evenodd"/><path fill="#100c00" d="m324.80054 461.08923l0 0c0 -6.923126 6.0846863 -12.535431 13.590546 -12.535431l0 0c7.5058594 0 13.590546 5.6123047 13.590546 12.535431l0 0c0 6.923126 -6.0846863 12.535431 -13.590546 12.535431l0 0c-7.5058594 0 -13.590546 -5.6123047 -13.590546 -12.535431z" fill-rule="evenodd"/><path stroke="#fff" stroke-width="1.0" stroke-linejoin="round" stroke-linecap="butt" d="m324.80054 461.08923l0 0c0 -6.923126 6.0846863 -12.535431 13.590546 -12.535431l0 0c7.5058594 0 13.590546 5.6123047 13.590546 12.535431l0 0c0 6.923126 -6.0846863 12.535431 -13.590546 12.535431l0 0c-7.5058594 0 -13.590546 -5.6123047 -13.590546 -12.535431z" fill-rule="evenodd"/><path fill="#100c00" d="m223.07611 362.70865l0 0c0 -6.923126 6.0847015 -12.535431 13.590561 -12.535431l0 0c7.505844 0 13.590546 5.6123047 13.590546 12.535431l0 0c0 6.923126 -6.0847015 12.535431 -13.590546 12.535431l0 0c-7.5058594 0 -13.590561 -5.6123047 -13.590561 -12.535431z" fill-rule="evenodd"/><path stroke="#fff" stroke-width="1.0" stroke-linejoin="round" stroke-linecap="butt" d="m223.07611 362.70865l0 0c0 -6.923126 6.0847015 -12.535431 13.590561 -12.535431l0 0c7.505844 0 13.590546 5.6123047 13.590546 12.535431l0 0c0 6.923126 -6.0847015 12.535431 -13.590546 12.535431l0 0c-7.5058594 0 -13.590561 -5.6123047 -13.590561 -12.535431z" fill-rule="evenodd"/><path fill="#100c00" d="m391.5092 372.6509l0 0c0 -6.923126 6.0846863 -12.535431 13.590546 -12.535431l0 0c7.5058594 0 13.590546 5.6123047 13.590546 12.535431l0 0c0 6.923126 -6.0846863 12.535431 -13.590546 12.535431l0 0c-7.5058594 0 -13.590546 -5.6123047 -13.590546 -12.535431z" fill-rule="evenodd"/><path stroke="#fff" stroke-width="1.0" stroke-linejoin="round" stroke-linecap="butt" d="m391.5092 372.6509l0 0c0 -6.923126 6.0846863 -12.535431 13.590546 -12.535431l0 0c7.5058594 0 13.590546 5.6123047 13.590546 12.535431l0 0c0 6.923126 -6.0846863 12.535431 -13.590546 12.535431l0 0c-7.5058594 0 -13.590546 -5.6123047 -13.590546 -12.535431z" fill-rule="evenodd"/><path fill="#fff" fill-opacity="0.0" d="m641.1575 182.48032l228.50397 0l0 54.92914l-228.50397 0z" fill-rule="evenodd"/><path fill="#fff" d="m653.45435 198.79657l2.671875 0l6.828125 16.984375l6.828125 -16.984375l2.6875 0l-8.484375 20.84375l-2.078125 0l-8.453125 -20.84375zm-0.875 0l2.359375 0l0.390625 12.703125l0 8.140625l-2.75 0l0 -20.84375zm18.390625 0l2.359375 0l0 20.84375l-2.75 0l0 -8.140625l0.390625 -12.703125zm17.323608 12.0625l0 2.15625l-8.1875 0l0 -2.15625l8.1875 0zm-7.640625 -6.71875l0 15.5l-2.640625 0l0 -15.5l2.640625 0zm9.78125 0l0 15.5l-2.65625 0l0 -15.5l2.65625 0zm3.5529785 7.921875l0 -0.328125q0 -1.671875 0.484375 -3.109375q0.5 -1.4375 1.40625 -2.5q0.921875 -1.078125 2.21875 -1.671875q1.3125 -0.59375 2.921875 -0.59375q1.640625 0 2.953125 0.59375q1.3125 0.59375 2.234375 1.671875q0.921875 1.0625 1.40625 2.5q0.484375 1.4375 0.484375 3.109375l0 0.328125q0 1.671875 -0.484375 3.109375q-0.484375 1.4375 -1.40625 2.5q-0.921875 1.0625 -2.21875 1.65625q-1.296875 0.59375 -2.9375 0.59375q-1.625 0 -2.9375 -0.59375q-1.296875 -0.59375 -2.21875 -1.65625q-0.921875 -1.0625 -1.421875 -2.5q-0.484375 -1.4375 -0.484375 -3.109375zm2.65625 -0.328125l0 0.328125q0 1.15625 0.265625 2.1875q0.28125 1.015625 0.828125 1.8125q0.546875 0.78125 1.375 1.234375q0.84375 0.453125 1.9375 0.453125q1.09375 0 1.90625 -0.453125q0.828125 -0.453125 1.375 -1.234375q0.546875 -0.796875 0.828125 -1.8125q0.28125 -1.03125 0.28125 -2.1875l0 -0.328125q0 -1.140625 -0.28125 -2.15625q-0.28125 -1.03125 -0.84375 -1.828125q-0.546875 -0.796875 -1.375 -1.25q-0.8125 -0.46875 -1.921875 -0.46875q-1.078125 0 -1.90625 0.46875q-0.828125 0.453125 -1.375 1.25q-0.546875 0.796875 -0.828125 1.828125q-0.265625 1.015625 -0.265625 2.15625zm19.175415 1.15625l-5.875 -8.75l3.1875 0l4.015625 6.421875l3.09375 0l-0.390625 2.328125l-4.03125 0zm1.4375 -0.265625l-4.484375 7.015625l-3.359375 0l6.171875 -8.9375l1.671875 1.921875zm4.34375 -8.484375l0 15.5l-2.640625 0l0 -15.5l2.640625 0zm9.03125 0l-5.859375 8.75l-4.046875 0l-0.40625 -2.328125l3.109375 0l4.0 -6.421875l3.203125 0zm-2.828125 15.5l-4.515625 -7.015625l1.703125 -1.921875l6.15625 8.9375l-3.34375 0zm11.93219 0.28125q-1.625 0 -2.9375 -0.546875q-1.3125 -0.546875 -2.25 -1.546875q-0.9375 -1.015625 -1.4375 -2.390625q-0.5 -1.375 -0.5 -3.0l0 -0.59375q0 -1.890625 0.5625 -3.375q0.5625 -1.484375 1.515625 -2.515625q0.96875 -1.03125 2.171875 -1.5625q1.21875 -0.53125 2.53125 -0.53125q1.65625 0 2.859375 0.578125q1.21875 0.5625 1.984375 1.59375q0.78125 1.015625 1.15625 2.40625q0.375 1.375 0.375 3.015625l0 1.1875l-11.578125 0l0 -2.171875l8.921875 0l0 -0.1875q-0.0625 -1.03125 -0.421875 -2.0q-0.359375 -0.984375 -1.15625 -1.609375q-0.78125 -0.640625 -2.140625 -0.640625q-0.90625 0 -1.671875 0.390625q-0.75 0.375 -1.296875 1.125q-0.546875 0.734375 -0.84375 1.8125q-0.296875 1.078125 -0.296875 2.484375l0 0.59375q0 1.109375 0.296875 2.078125q0.3125 0.953125 0.90625 1.6875q0.59375 0.734375 1.4375 1.15625q0.859375 0.40625 1.953125 0.40625q1.40625 0 2.375 -0.5625q0.96875 -0.578125 1.703125 -1.546875l1.609375 1.28125q-0.5 0.75 -1.28125 1.4375q-0.765625 0.6875 -1.890625 1.125q-1.125 0.421875 -2.65625 0.421875zm15.317566 -2.171875q0.953125 0 1.75 -0.375q0.796875 -0.390625 1.3125 -1.078125q0.515625 -0.6875 0.59375 -1.546875l2.515625 0q-0.0625 1.375 -0.921875 2.5625q-0.859375 1.171875 -2.234375 1.890625q-1.375 0.71875 -3.015625 0.71875q-1.75 0 -3.046875 -0.609375q-1.296875 -0.609375 -2.15625 -1.6875q-0.84375 -1.078125 -1.265625 -2.46875q-0.421875 -1.40625 -0.421875 -2.96875l0 -0.59375q0 -1.5625 0.421875 -2.953125q0.421875 -1.40625 1.265625 -2.46875q0.859375 -1.078125 2.15625 -1.6875q1.296875 -0.625 3.046875 -0.625q1.8125 0 3.171875 0.734375q1.375 0.734375 2.15625 2.015625q0.78125 1.265625 0.84375 2.859375l-2.515625 0q-0.078125 -0.953125 -0.546875 -1.71875q-0.453125 -0.78125 -1.25 -1.25q-0.796875 -0.46875 -1.859375 -0.46875q-1.21875 0 -2.046875 0.484375q-0.8125 0.484375 -1.296875 1.296875q-0.484375 0.796875 -0.6875 1.78125q-0.203125 0.984375 -0.203125 2.0l0 0.59375q0 1.015625 0.1875 2.015625q0.203125 0.984375 0.6875 1.796875q0.484375 0.796875 1.296875 1.28125q0.828125 0.46875 2.0625 0.46875zm15.460815 -13.609375l0 15.5l-2.65625 0l0 -15.5l2.65625 0zm5.203125 0l0 2.15625l-12.953125 0l0 -2.15625l12.953125 0zm9.871216 8.6875l-5.09375 0l-0.015625 -2.125l4.140625 0q1.234375 0 2.0625 -0.234375q0.828125 -0.25 1.234375 -0.734375q0.421875 -0.484375 0.421875 -1.203125q0 -0.5625 -0.234375 -0.984375q-0.234375 -0.421875 -0.71875 -0.703125q-0.46875 -0.28125 -1.171875 -0.40625q-0.6875 -0.140625 -1.609375 -0.140625l-3.40625 0l0 13.34375l-2.640625 0l0 -15.5l6.046875 0q1.46875 0 2.640625 0.265625q1.1875 0.25 2.015625 0.78125q0.84375 0.515625 1.28125 1.328125q0.453125 0.796875 0.453125 1.890625q0 0.6875 -0.28125 1.328125q-0.28125 0.625 -0.84375 1.109375q-0.5625 0.484375 -1.375 0.796875q-0.8125 0.3125 -1.875 0.390625l-1.03125 0.796875zm0 6.8125l-6.046875 0l1.3125 -2.140625l4.734375 0q1.09375 0 1.828125 -0.28125q0.734375 -0.28125 1.09375 -0.796875q0.375 -0.53125 0.375 -1.265625q0 -0.734375 -0.375 -1.25q-0.359375 -0.53125 -1.09375 -0.796875q-0.734375 -0.28125 -1.828125 -0.28125l-4.03125 0l0.03125 -2.125l5.03125 0l0.953125 0.796875q1.28125 0.109375 2.15625 0.640625q0.890625 0.53125 1.34375 1.34375q0.46875 0.796875 0.46875 1.75q0 1.078125 -0.40625 1.921875q-0.40625 0.828125 -1.1875 1.375q-0.765625 0.546875 -1.875 0.828125q-1.09375 0.28125 -2.484375 0.28125zm8.78479 -7.578125l0 -0.328125q0 -1.671875 0.484375 -3.109375q0.5 -1.4375 1.40625 -2.5q0.921875 -1.078125 2.21875 -1.671875q1.3125 -0.59375 2.921875 -0.59375q1.640625 0 2.953125 0.59375q1.3125 0.59375 2.234375 1.671875q0.921875 1.0625 1.40625 2.5q0.484375 1.4375 0.484375 3.109375l0 0.328125q0 1.671875 -0.484375 3.109375q-0.484375 1.4375 -1.40625 2.5q-0.921875 1.0625 -2.21875 1.65625q-1.296875 0.59375 -2.9375 0.59375q-1.625 0 -2.9375 -0.59375q-1.296875 -0.59375 -2.21875 -1.65625q-0.921875 -1.0625 -1.421875 -2.5q-0.484375 -1.4375 -0.484375 -3.109375zm2.65625 -0.328125l0 0.328125q0 1.15625 0.265625 2.1875q0.28125 1.015625 0.828125 1.8125q0.546875 0.78125 1.375 1.234375q0.84375 0.453125 1.9375 0.453125q1.09375 0 1.90625 -0.453125q0.828125 -0.453125 1.375 -1.234375q0.546875 -0.796875 0.828125 -1.8125q0.28125 -1.03125 0.28125 -2.1875l0 -0.328125q0 -1.140625 -0.28125 -2.15625q-0.28125 -1.03125 -0.84375 -1.828125q-0.546875 -0.796875 -1.375 -1.25q-0.8125 -0.46875 -1.921875 -0.46875q-1.078125 0 -1.90625 0.46875q-0.828125 0.453125 -1.375 1.25q-0.546875 0.796875 -0.828125 1.828125q-0.265625 1.015625 -0.265625 2.15625z" fill-rule="nonzero"/></g></svg>