<svg version="1.1" viewBox="0.0 0.0 960.0 540.0" fill="none" stroke="none" stroke-linecap="square" stroke-miterlimit="10" xmlns:xlink="http://www.w3.org/1999/xlink" xmlns="http://www.w3.org/2000/svg"><clipPath id="g36c326e7edb_0_24.0"><path d="m0 0l960.0 0l0 540.0l-960.0 0l0 -540.0z" clip-rule="nonzero"/></clipPath><g clip-path="url(#g36c326e7edb_0_24.0)"><path fill="#ffffff" d="m0 0l960.0 0l0 540.0l-960.0 0z" fill-rule="evenodd"/><path fill="#000000" fill-opacity="0.0" d="m889.4969 489.57657l57.606323 0l0 41.322845l-57.606323 0z" fill-rule="evenodd"/><path fill="#eeeeee" d="m297.61942 71.698166l0 0c0 -6.923134 6.084717 -12.535435 13.590546 -12.535435l0 0c7.5058594 0 13.590576 5.612301 13.590576 12.535435l0 0c0 6.923126 -6.084717 12.535431 -13.590576 12.535431l0 0c-7.505829 0 -13.590546 -5.6123047 -13.590546 -12.535431z" fill-rule="evenodd"/><path stroke="#212121" stroke-width="1.0" stroke-linejoin="round" stroke-linecap="butt" d="m297.61942 71.698166l0 0c0 -6.923134 6.084717 -12.535435 13.590546 -12.535435l0 0c7.5058594 0 13.590576 5.612301 13.590576 12.535435l0 0c0 6.923126 -6.084717 12.535431 -13.590576 12.535431l0 0c-7.505829 0 -13.590546 -5.6123047 -13.590546 -12.535431z" fill-rule="evenodd"/><path fill="#eeeeee" d="m200.4252 159.83464l0 0c0 -6.923126 6.0846863 -12.535431 13.590546 -12.535431l0 0c7.5058594 0 13.590546 5.6123047 13.590546 12.535431l0 0c0 6.923126 -6.0846863 12.535431 -13.590546 12.535431l0 0c-7.5058594 0 -13.590546 -5.6123047 -13.590546 -12.535431z" fill-rule="evenodd"/><path stroke="#212121" stroke-width="1.0" stroke-linejoin="round" stroke-linecap="butt" d="m200.4252 159.83464l0 0c0 -6.923126 6.0846863 -12.535431 13.590546 -12.535431l0 0c7.5058594 0 13.590546 5.6123047 13.590546 12.535431l0 0c0 6.923126 -6.0846863 12.535431 -13.590546 12.535431l0 0c-7.5058594 0 -13.590546 -5.6123047 -13.590546 -12.535431z" fill-rule="evenodd"/><path fill="#eeeeee" d="m431.03674 175.53543l0 0c0 -6.923126 6.0846863 -12.535431 13.590546 -12.535431l0 0c7.5058594 0 13.590546 5.6123047 13.590546 12.535431l0 0c0 6.923126 -6.0846863 12.535431 -13.590546 12.535431l0 0c-7.5058594 0 -13.590546 -5.6123047 -13.590546 -12.535431z" fill-rule="evenodd"/><path stroke="#212121" stroke-width="1.0" stroke-linejoin="round" stroke-linecap="butt" d="m431.03674 175.53543l0 0c0 -6.923126 6.0846863 -12.535431 13.590546 -12.535431l0 0c7.5058594 0 13.590546 5.6123047 13.590546 12.535431l0 0c0 6.923126 -6.0846863 12.535431 -13.590546 12.535431l0 0c-7.5058594 0 -13.590546 -5.6123047 -13.590546 -12.535431z" fill-rule="evenodd"/><path fill="#eeeeee" d="m313.62204 249.94357l0 0c0 -6.923126 6.084717 -12.535431 13.590546 -12.535431l0 0c7.5058594 0 13.590576 5.6123047 13.590576 12.535431l0 0c0 6.923126 -6.084717 12.535431 -13.590576 12.535431l0 0c-7.505829 0 -13.590546 -5.6123047 -13.590546 -12.535431z" fill-rule="evenodd"/><path stroke="#212121" stroke-width="1.0" stroke-linejoin="round" stroke-linecap="butt" d="m313.62204 249.94357l0 0c0 -6.923126 6.084717 -12.535431 13.590546 -12.535431l0 0c7.5058594 0 13.590576 5.6123047 13.590576 12.535431l0 0c0 6.923126 -6.084717 12.535431 -13.590576 12.535431l0 0c-7.505829 0 -13.590546 -5.6123047 -13.590546 -12.535431z" fill-rule="evenodd"/><path fill="#eeeeee" d="m488.43832 299.90027l0 0c0 -6.923126 6.0846863 -12.535431 13.590546 -12.535431l0 0c7.5058594 0 13.590576 5.6123047 13.590576 12.535431l0 0c0 6.923126 -6.084717 12.535431 -13.590576 12.535431l0 0c-7.5058594 0 -13.590546 -5.6123047 -13.590546 -12.535431z" fill-rule="evenodd"/><path stroke="#212121" stroke-width="1.0" stroke-linejoin="round" stroke-linecap="butt" d="m488.43832 299.90027l0 0c0 -6.923126 6.0846863 -12.535431 13.590546 -12.535431l0 0c7.5058594 0 13.590576 5.6123047 13.590576 12.535431l0 0c0 6.923126 -6.084717 12.535431 -13.590576 12.535431l0 0c-7.5058594 0 -13.590546 -5.6123047 -13.590546 -12.535431z" fill-rule="evenodd"/><path fill="#eeeeee" d="m135.83989 280.88452l0 0c0 -6.923126 6.0847015 -12.535431 13.590561 -12.535431l0 0c7.505844 0 13.590546 5.6123047 13.590546 12.535431l0 0c0 6.923126 -6.0847015 12.535431 -13.590546 12.535431l0 0c-7.5058594 0 -13.590561 -5.6123047 -13.590561 -12.535431z" fill-rule="evenodd"/><path stroke="#212121" stroke-width="1.0" stroke-linejoin="round" stroke-linecap="butt" d="m135.83989 280.88452l0 0c0 -6.923126 6.0847015 -12.535431 13.590561 -12.535431l0 0c7.505844 0 13.590546 5.6123047 13.590546 12.535431l0 0c0 6.923126 -6.0847015 12.535431 -13.590546 12.535431l0 0c-7.5058594 0 -13.590561 -5.6123047 -13.590561 -12.535431z" fill-rule="evenodd"/><path fill="#eeeeee" d="m324.80054 461.08923l0 0c0 -6.923126 6.0846863 -12.535431 13.590546 -12.535431l0 0c7.5058594 0 13.590546 5.6123047 13.590546 12.535431l0 0c0 6.923126 -6.0846863 12.535431 -13.590546 12.535431l0 0c-7.5058594 0 -13.590546 -5.6123047 -13.590546 -12.535431z" fill-rule="evenodd"/><path stroke="#212121" stroke-width="1.0" stroke-linejoin="round" stroke-linecap="butt" d="m324.80054 461.08923l0 0c0 -6.923126 6.0846863 -12.535431 13.590546 -12.535431l0 0c7.5058594 0 13.590546 5.6123047 13.590546 12.535431l0 0c0 6.923126 -6.0846863 12.535431 -13.590546 12.535431l0 0c-7.5058594 0 -13.590546 -5.6123047 -13.590546 -12.535431z" fill-rule="evenodd"/><path fill="#eeeeee" d="m223.07611 362.70865l0 0c0 -6.923126 6.0847015 -12.535431 13.590561 -12.535431l0 0c7.505844 0 13.590546 5.6123047 13.590546 12.535431l0 0c0 6.923126 -6.0847015 12.535431 -13.590546 12.535431l0 0c-7.5058594 0 -13.590561 -5.6123047 -13.590561 -12.535431z" fill-rule="evenodd"/><path stroke="#212121" stroke-width="1.0" stroke-linejoin="round" stroke-linecap="butt" d="m223.07611 362.70865l0 0c0 -6.923126 6.0847015 -12.535431 13.590561 -12.535431l0 0c7.505844 0 13.590546 5.6123047 13.590546 12.535431l0 0c0 6.923126 -6.0847015 12.535431 -13.590546 12.535431l0 0c-7.5058594 0 -13.590561 -5.6123047 -13.590561 -12.535431z" fill-rule="evenodd"/><path fill="#eeeeee" d="m391.5092 372.6509l0 0c0 -6.923126 6.0846863 -12.535431 13.590546 -12.535431l0 0c7.5058594 0 13.590546 5.6123047 13.590546 12.535431l0 0c0 6.923126 -6.0846863 12.535431 -13.590546 12.535431l0 0c-7.5058594 0 -13.590546 -5.6123047 -13.590546 -12.535431z" fill-rule="evenodd"/><path stroke="#212121" stroke-width="1.0" stroke-linejoin="round" stroke-linecap="butt" d="m391.5092 372.6509l0 0c0 -6.923126 6.0846863 -12.535431 13.590546 -12.535431l0 0c7.5058594 0 13.590546 5.6123047 13.590546 12.535431l0 0c0 6.923126 -6.0846863 12.535431 -13.590546 12.535431l0 0c-7.5058594 0 -13.590546 -5.6123047 -13.590546 -12.535431z" fill-rule="evenodd"/><path fill="#000000" fill-opacity="0.0" d="m328.7811 452.22534l-82.519684 -80.66141" fill-rule="evenodd"/><path stroke="#212121" stroke-width="1.0" stroke-linejoin="round" stroke-linecap="butt" d="m328.7811 452.22534l-78.22899 -76.46735" fill-rule="evenodd"/><path fill="#212121" stroke="#212121" stroke-width="1.0" stroke-linecap="butt" d="m251.70668 374.5768l-4.3998413 -1.9909973l2.090683 4.353363z" fill-rule="evenodd"/><path fill="#000000" fill-opacity="0.0" d="m348.00104 452.22534l47.496063 -70.70865" fill-rule="evenodd"/><path stroke="#212121" stroke-width="1.0" stroke-linejoin="round" stroke-linecap="butt" d="m348.00107 452.22534l44.15045 -65.72797" fill-rule="evenodd"/><path fill="#212121" stroke="#212121" stroke-width="1.0" stroke-linecap="butt" d="m393.52267 387.41837l1.1593018 -4.688141l-3.9015503 2.8461304z" fill-rule="evenodd"/><path fill="#000000" fill-opacity="0.0" d="m227.0567 353.84476l-68.03151 -64.09448" fill-rule="evenodd"/><path stroke="#212121" stroke-width="1.0" stroke-linejoin="round" stroke-linecap="butt" d="m227.0567 353.8448l-63.664368 -59.980103" fill-rule="evenodd"/><path fill="#212121" stroke="#212121" stroke-width="1.0" stroke-linecap="butt" d="m164.52496 292.66248l-4.4357147 -1.909729l2.1704254 4.314148z" fill-rule="evenodd"/><path fill="#000000" fill-opacity="0.0" d="m414.70972 363.78702l77.700775 -55.02362" fill-rule="evenodd"/><path stroke="#212121" stroke-width="1.0" stroke-linejoin="round" stroke-linecap="butt" d="m414.70972 363.78702l72.80423 -51.55612" fill-rule="evenodd"/><path fill="#212121" stroke="#212121" stroke-width="1.0" stroke-linecap="butt" d="m488.4685 313.5789l2.7489624 -3.9706116l-4.658081 1.2746582z" fill-rule="evenodd"/><path fill="#000000" fill-opacity="0.0" d="m395.48978 363.78702l-58.677185 -104.97638" fill-rule="evenodd"/><path stroke="#212121" stroke-width="1.0" stroke-linejoin="round" stroke-linecap="butt" d="m395.48975 363.78702l-55.749695 -99.73898" fill-rule="evenodd"/><path fill="#212121" stroke="#212121" stroke-width="1.0" stroke-linecap="butt" d="m341.18185 263.24213l-3.6559753 -3.1553955l0.7723999 4.7671814z" fill-rule="evenodd"/><path fill="#000000" fill-opacity="0.0" d="m246.27664 353.84476l71.33859 -95.02362" fill-rule="evenodd"/><path stroke="#212121" stroke-width="1.0" stroke-linejoin="round" stroke-linecap="butt" d="m246.27664 353.8448l67.7363 -90.22534" fill-rule="evenodd"/><path fill="#212121" stroke="#212121" stroke-width="1.0" stroke-linecap="butt" d="m315.33383 264.6111l1.4036865 -4.6208496l-4.0455017 2.6375122z" fill-rule="evenodd"/><path fill="#000000" fill-opacity="0.0" d="m236.66142 350.16534l-22.645676 -177.79527" fill-rule="evenodd"/><path stroke="#212121" stroke-width="1.0" stroke-linejoin="round" stroke-linecap="butt" d="m236.66142 350.16534l-21.887573 -171.84335" fill-rule="evenodd"/><path fill="#212121" stroke="#212121" stroke-width="1.0" stroke-linecap="butt" d="m216.41234 178.1133l-2.2118835 -4.29303l-1.0651093 4.7104187z" fill-rule="evenodd"/><path fill="#000000" fill-opacity="0.0" d="m149.43045 268.3491l54.960632 -99.65355" fill-rule="evenodd"/><path stroke="#212121" stroke-width="1.0" stroke-linejoin="round" stroke-linecap="butt" d="m149.43045 268.3491l52.06299 -94.39964" fill-rule="evenodd"/><path fill="#212121" stroke="#212121" stroke-width="1.0" stroke-linecap="butt" d="m202.93979 174.74715l0.74528503 -4.7714844l-3.63797 3.176117z" fill-rule="evenodd"/><path fill="#000000" fill-opacity="0.0" d="m223.62572 150.97075l77.98427 -70.39369" fill-rule="evenodd"/><path stroke="#212121" stroke-width="1.0" stroke-linejoin="round" stroke-linecap="butt" d="m223.62572 150.97076l73.53038 -66.37337" fill-rule="evenodd"/><path fill="#212121" stroke="#212121" stroke-width="1.0" stroke-linecap="butt" d="m298.26288 85.823494l2.2619019 -4.266884l-4.4754333 1.8146896z" fill-rule="evenodd"/><path fill="#000000" fill-opacity="0.0" d="m435.01733 166.67154l-114.20474 -86.11023" fill-rule="evenodd"/><path stroke="#212121" stroke-width="1.0" stroke-linejoin="round" stroke-linecap="butt" d="m435.0173 166.67154l-109.41391 -82.497986" fill-rule="evenodd"/><path fill="#212121" stroke="#212121" stroke-width="1.0" stroke-linecap="butt" d="m326.5978 82.854706l-4.61792 -1.4132767l2.6290894 4.0509796z" fill-rule="evenodd"/><path fill="#000000" fill-opacity="0.0" d="m336.82257 241.07968l98.20471 -56.692917" fill-rule="evenodd"/><path stroke="#212121" stroke-width="1.0" stroke-linejoin="round" stroke-linecap="butt" d="m336.82257 241.07968l93.00845 -53.69313" fill-rule="evenodd"/><path fill="#212121" stroke="#212121" stroke-width="1.0" stroke-linecap="butt" d="m430.65683 188.81703l3.1044006 -3.6993713l-4.756012 0.8384094z" fill-rule="evenodd"/><path fill="#000000" fill-opacity="0.0" d="m327.2126 237.40814l-16.0 -153.16536" fill-rule="evenodd"/><path stroke="#212121" stroke-width="1.0" stroke-linejoin="round" stroke-linecap="butt" d="m327.2126 237.40814l-15.376617 -147.19783" fill-rule="evenodd"/><path fill="#212121" stroke="#212121" stroke-width="1.0" stroke-linecap="butt" d="m313.47876 90.038704l-2.1142883 -4.341934l-1.1712952 4.68515z" fill-rule="evenodd"/><path fill="#000000" fill-opacity="0.0" d="m492.40683 291.0315l-47.77954 -102.96063" fill-rule="evenodd"/><path stroke="#212121" stroke-width="1.0" stroke-linejoin="round" stroke-linecap="butt" d="m492.40683 291.0315l-45.253906 -97.5181" fill-rule="evenodd"/><path fill="#212121" stroke="#212121" stroke-width="1.0" stroke-linecap="butt" d="m448.6512 192.81812l-3.4085388 -3.421173l0.4119873 4.811737z" fill-rule="evenodd"/><path fill="#000000" fill-opacity="0.0" d="m626.6037 186.92126l288.9134 0l0 126.04724l-288.9134 0z" fill-rule="evenodd"/><path fill="#212121" d="m654.07245 213.00313l0 1.3125q0 2.34375 -0.59375 4.21875q-0.578125 1.859375 -1.6875 3.15625q-1.09375 1.296875 -2.640625 1.984375q-1.53125 0.6875 -3.4375 0.6875q-1.84375 0 -3.390625 -0.6875q-1.53125 -0.6875 -2.65625 -1.984375q-1.125 -1.296875 -1.75 -3.15625q-0.609375 -1.875 -0.609375 -4.21875l0 -1.3125q0 -2.359375 0.609375 -4.203125q0.609375 -1.859375 1.71875 -3.171875q1.125 -1.3125 2.65625 -2.0q1.546875 -0.6875 3.390625 -0.6875q1.90625 0 3.4375 0.6875q1.546875 0.6875 2.65625 2.0q1.109375 1.3125 1.703125 3.171875q0.59375 1.84375 0.59375 4.203125zm-2.734375 1.3125l0 -1.34375q0 -1.859375 -0.375 -3.296875q-0.375 -1.4375 -1.109375 -2.40625q-0.734375 -0.96875 -1.796875 -1.46875q-1.046875 -0.5 -2.375 -0.5q-1.28125 0 -2.328125 0.5q-1.03125 0.5 -1.78125 1.46875q-0.734375 0.96875 -1.140625 2.40625q-0.390625 1.4375 -0.390625 3.296875l0 1.34375q0 1.875 0.390625 3.3125q0.40625 1.4375 1.15625 2.421875q0.765625 0.984375 1.796875 1.484375q1.046875 0.5 2.328125 0.5q1.34375 0 2.390625 -0.5q1.046875 -0.5 1.765625 -1.484375q0.734375 -0.984375 1.09375 -2.421875q0.375 -1.4375 0.375 -3.3125zm12.771118 -5.734375l0 15.5l-2.65625 0l0 -15.5l2.65625 0zm5.203125 0l0 2.15625l-12.953125 0l0 -2.15625l12.953125 0zm13.105591 6.71875l0 2.15625l-8.1875 0l0 -2.15625l8.1875 0zm-7.640625 -6.71875l0 15.5l-2.640625 0l0 -15.5l2.640625 0zm9.78125 0l0 15.5l-2.65625 0l0 -15.5l2.65625 0zm3.5529785 7.921875l0 -0.328125q0 -1.671875 0.484375 -3.109375q0.5 -1.4375 1.40625 -2.5q0.921875 -1.078125 2.21875 -1.671875q1.3125 -0.59375 2.921875 -0.59375q1.640625 0 2.953125 0.59375q1.3125 0.59375 2.234375 1.671875q0.921875 1.0625 1.40625 2.5q0.484375 1.4375 0.484375 3.109375l0 0.328125q0 1.671875 -0.484375 3.109375q-0.484375 1.4375 -1.40625 2.5q-0.921875 1.0625 -2.21875 1.65625q-1.296875 0.59375 -2.9375 0.59375q-1.625 0 -2.9375 -0.59375q-1.296875 -0.59375 -2.21875 -1.65625q-0.921875 -1.0625 -1.421875 -2.5q-0.484375 -1.4375 -0.484375 -3.109375zm2.65625 -0.328125l0 0.328125q0 1.15625 0.265625 2.1875q0.28125 1.015625 0.828125 1.8125q0.546875 0.78125 1.375 1.234375q0.84375 0.453125 1.9375 0.453125q1.09375 0 1.90625 -0.453125q0.828125 -0.453125 1.375 -1.234375q0.546875 -0.796875 0.828125 -1.8125q0.28125 -1.03125 0.28125 -2.1875l0 -0.328125q0 -1.140625 -0.28125 -2.15625q-0.28125 -1.03125 -0.84375 -1.828125q-0.546875 -0.796875 -1.375 -1.25q-0.8125 -0.46875 -1.921875 -0.46875q-1.078125 0 -1.90625 0.46875q-0.828125 0.453125 -1.375 1.25q-0.546875 0.796875 -0.828125 1.828125q-0.265625 1.015625 -0.265625 2.15625zm15.007446 -7.59375l2.640625 0l0 13.328125l5.671875 0l0 -13.328125l2.671875 0l0 13.328125l5.65625 0l0 -13.328125l2.640625 0l0 15.5l-19.28125 0l0 -15.5zm29.932007 15.78125q-1.625 0 -2.9375 -0.546875q-1.3125 -0.546875 -2.25 -1.546875q-0.9375 -1.015625 -1.4375 -2.390625q-0.5 -1.375 -0.5 -3.0l0 -0.59375q0 -1.890625 0.5625 -3.375q0.5625 -1.484375 1.515625 -2.515625q0.96875 -1.03125 2.171875 -1.5625q1.21875 -0.53125 2.53125 -0.53125q1.65625 0 2.859375 0.578125q1.21875 0.5625 1.984375 1.59375q0.78125 1.015625 1.15625 2.40625q0.375 1.375 0.375 3.015625l0 1.1875l-11.578125 0l0 -2.171875l8.921875 0l0 -0.1875q-0.0625 -1.03125 -0.421875 -2.0q-0.359375 -0.984375 -1.15625 -1.609375q-0.78125 -0.640625 -2.140625 -0.640625q-0.90625 0 -1.671875 0.390625q-0.75 0.375 -1.296875 1.125q-0.546875 0.734375 -0.84375 1.8125q-0.296875 1.078125 -0.296875 2.484375l0 0.59375q0 1.109375 0.296875 2.078125q0.3125 0.953125 0.90625 1.6875q0.59375 0.734375 1.4375 1.15625q0.859375 0.40625 1.953125 0.40625q1.40625 0 2.375 -0.5625q0.96875 -0.578125 1.703125 -1.546875l1.609375 1.28125q-0.5 0.75 -1.28125 1.4375q-0.765625 0.6875 -1.890625 1.125q-1.125 0.421875 -2.65625 0.421875zm19.630066 -9.0625l0 2.15625l-8.1875 0l0 -2.15625l8.1875 0zm-7.640625 -6.71875l0 15.5l-2.640625 0l0 -15.5l2.640625 0zm9.78125 0l0 15.5l-2.65625 0l0 -15.5l2.65625 0zm7.1311035 11.296875l7.140625 -11.296875l2.65625 0l0 15.5l-2.65625 0l0 -11.296875l-7.140625 11.296875l-2.640625 0l0 -15.5l2.640625 0l0 11.296875zm20.489197 4.484375q-1.625 0 -2.9375 -0.546875q-1.3125 -0.546875 -2.25 -1.546875q-0.9375 -1.015625 -1.4375 -2.390625q-0.5 -1.375 -0.5 -3.0l0 -0.59375q0 -1.890625 0.5625 -3.375q0.5625 -1.484375 1.515625 -2.515625q0.96875 -1.03125 2.171875 -1.5625q1.21875 -0.53125 2.53125 -0.53125q1.65625 0 2.859375 0.578125q1.21875 0.5625 1.984375 1.59375q0.78125 1.015625 1.15625 2.40625q0.375 1.375 0.375 3.015625l0 1.1875l-11.578125 0l0 -2.171875l8.921875 0l0 -0.1875q-0.0625 -1.03125 -0.421875 -2.0q-0.359375 -0.984375 -1.15625 -1.609375q-0.78125 -0.640625 -2.140625 -0.640625q-0.90625 0 -1.671875 0.390625q-0.75 0.375 -1.296875 1.125q-0.546875 0.734375 -0.84375 1.8125q-0.296875 1.078125 -0.296875 2.484375l0 0.59375q0 1.109375 0.296875 2.078125q0.3125 0.953125 0.90625 1.6875q0.59375 0.734375 1.4375 1.15625q0.859375 0.40625 1.953125 0.40625q1.40625 0 2.375 -0.5625q0.96875 -0.578125 1.703125 -1.546875l1.609375 1.28125q-0.5 0.75 -1.28125 1.4375q-0.765625 0.6875 -1.890625 1.125q-1.125 0.421875 -2.65625 0.421875z" fill-rule="nonzero"/><path fill="#212121" d="m649.3068 243.78127l0 15.499985l-2.640625 0l0 -15.499985l2.640625 0zm-0.90625 7.125l0 2.171875q-0.796875 0.296875 -1.625 0.546875q-0.8125 0.234375 -1.734375 0.375q-0.90625 0.125 -1.96875 0.125q-1.828125 0 -3.171875 -0.640625q-1.34375 -0.640625 -2.078125 -1.921875q-0.734375 -1.296875 -0.734375 -3.28125l0 -4.515625l2.65625 0l0 4.515625q0 1.296875 0.375 2.09375q0.390625 0.796875 1.140625 1.1875q0.75 0.375 1.8125 0.375q1.03125 0 1.9375 -0.140625q0.921875 -0.140625 1.75 -0.359375q0.84375 -0.234375 1.640625 -0.53125zm14.312256 5.7187347l0 -7.9687347q0 -0.921875 -0.375 -1.59375q-0.359375 -0.6875 -1.09375 -1.046875q-0.71875 -0.375 -1.796875 -0.375q-1.0 0 -1.75 0.34375q-0.75 0.34375 -1.171875 0.90625q-0.421875 0.546875 -0.421875 1.1875l-2.65625 0q0 -0.828125 0.421875 -1.640625q0.4375 -0.8125 1.25 -1.484375q0.8125 -0.671875 1.9375 -1.0625q1.140625 -0.390625 2.546875 -0.390625q1.6875 0 2.984375 0.578125q1.296875 0.5625 2.03125 1.71875q0.75 1.15625 0.75 2.890625l0 7.21875q0 0.76560974 0.125 1.6406097q0.140625 0.875 0.40625 1.5l0 0.234375l-2.765625 0q-0.1875 -0.453125 -0.3125 -1.21875q-0.109375 -0.765625 -0.109375 -1.4375zm0.453125 -6.7343597l0.03125 1.859375l-2.671875 0q-1.140625 0 -2.03125 0.1875q-0.875 0.171875 -1.484375 0.53125q-0.59375 0.359375 -0.921875 0.890625q-0.3125 0.53125 -0.3125 1.25q0 0.734375 0.328125 1.34375q0.34375 0.59373474 1.0 0.95310974q0.671875 0.34375 1.640625 0.34375q1.21875 0 2.140625 -0.515625q0.9375 -0.515625 1.484375 -1.2499847q0.5625 -0.75 0.59375 -1.453125l1.140625 1.265625q-0.109375 0.609375 -0.546875 1.3437347q-0.4375 0.71875 -1.1875 1.390625q-0.734375 0.65625 -1.75 1.09375q-1.0 0.4375 -2.265625 0.4375q-1.5625 0 -2.75 -0.609375q-1.1875 -0.609375 -1.84375 -1.640625q-0.640625 -1.046875 -0.640625 -2.3437347q0 -1.25 0.484375 -2.1875q0.484375 -0.953125 1.40625 -1.59375q0.921875 -0.640625 2.203125 -0.96875q1.296875 -0.328125 2.875 -0.328125l3.078125 0zm12.562256 7.4999847q0.953125 0 1.75 -0.375q0.796875 -0.390625 1.3125 -1.0781097q0.515625 -0.6875 0.59375 -1.546875l2.515625 0q-0.0625 1.375 -0.921875 2.5624847q-0.859375 1.171875 -2.234375 1.890625q-1.375 0.71875 -3.015625 0.71875q-1.75 0 -3.046875 -0.609375q-1.296875 -0.609375 -2.15625 -1.6875q-0.84375 -1.078125 -1.265625 -2.4687347q-0.421875 -1.40625 -0.421875 -2.96875l0 -0.59375q0 -1.5625 0.421875 -2.953125q0.421875 -1.40625 1.265625 -2.46875q0.859375 -1.078125 2.15625 -1.6875q1.296875 -0.625 3.046875 -0.625q1.8125 0 3.171875 0.734375q1.375 0.734375 2.15625 2.015625q0.78125 1.265625 0.84375 2.859375l-2.515625 0q-0.078125 -0.953125 -0.546875 -1.71875q-0.453125 -0.78125 -1.25 -1.25q-0.796875 -0.46875 -1.859375 -0.46875q-1.21875 0 -2.046875 0.484375q-0.8125 0.484375 -1.296875 1.296875q-0.484375 0.796875 -0.6875 1.78125q-0.203125 0.984375 -0.203125 2.0l0 0.59375q0 1.015625 0.1875 2.015625q0.203125 0.984375 0.6875 1.796875q0.484375 0.79685974 1.296875 1.2812347q0.828125 0.46875 2.0625 0.46875zm15.460815 -13.60936l0 15.499985l-2.65625 0l0 -15.499985l2.65625 0zm5.203125 0l0 2.15625l-12.953125 0l0 -2.15625l12.953125 0zm5.464966 11.296875l7.140625 -11.296875l2.65625 0l0 15.499985l-2.65625 0l0 -11.29686l-7.140625 11.29686l-2.640625 0l0 -15.499985l2.640625 0l0 11.296875zm25.739197 -11.296875l0 15.499985l-2.640625 0l0 -15.499985l2.640625 0zm-0.90625 7.125l0 2.171875q-0.796875 0.296875 -1.625 0.546875q-0.8125 0.234375 -1.734375 0.375q-0.90625 0.125 -1.96875 0.125q-1.828125 0 -3.171875 -0.640625q-1.34375 -0.640625 -2.078125 -1.921875q-0.734375 -1.296875 -0.734375 -3.28125l0 -4.515625l2.65625 0l0 4.515625q0 1.296875 0.375 2.09375q0.390625 0.796875 1.140625 1.1875q0.75 0.375 1.8125 0.375q1.03125 0 1.9375 -0.140625q0.921875 -0.140625 1.75 -0.359375q0.84375 -0.234375 1.640625 -0.53125zm15.687256 -0.40625l0 2.15625l-8.1875 0l0 -2.15625l8.1875 0zm-7.640625 -6.71875l0 15.499985l-2.640625 0l0 -15.499985l2.640625 0zm9.78125 0l0 15.499985l-2.65625 0l0 -15.499985l2.65625 0zm3.5529785 7.921875l0 -0.328125q0 -1.671875 0.484375 -3.109375q0.5 -1.4375 1.40625 -2.5q0.921875 -1.078125 2.21875 -1.671875q1.3125 -0.59375 2.921875 -0.59375q1.640625 0 2.953125 0.59375q1.3125 0.59375 2.234375 1.671875q0.921875 1.0625 1.40625 2.5q0.484375 1.4375 0.484375 3.109375l0 0.328125q0 1.671875 -0.484375 3.109375q-0.484375 1.4374847 -1.40625 2.4999847q-0.921875 1.0625 -2.21875 1.65625q-1.296875 0.59375 -2.9375 0.59375q-1.625 0 -2.9375 -0.59375q-1.296875 -0.59375 -2.21875 -1.65625q-0.921875 -1.0625 -1.421875 -2.4999847q-0.484375 -1.4375 -0.484375 -3.109375zm2.65625 -0.328125l0 0.328125q0 1.15625 0.265625 2.1875q0.28125 1.015625 0.828125 1.8125q0.546875 0.78123474 1.375 1.2343597q0.84375 0.453125 1.9375 0.453125q1.09375 0 1.90625 -0.453125q0.828125 -0.453125 1.375 -1.2343597q0.546875 -0.796875 0.828125 -1.8125q0.28125 -1.03125 0.28125 -2.1875l0 -0.328125q0 -1.140625 -0.28125 -2.15625q-0.28125 -1.03125 -0.84375 -1.828125q-0.546875 -0.796875 -1.375 -1.25q-0.8125 -0.46875 -1.921875 -0.46875q-1.078125 0 -1.90625 0.46875q-0.828125 0.453125 -1.375 1.25q-0.546875 0.796875 -0.828125 1.828125q-0.265625 1.015625 -0.265625 2.15625zm24.788696 -7.59375l0 2.203125l-7.15625 0l0 13.29686l-2.65625 0l0 -15.499985l9.8125 0zm1.3103027 7.921875l0 -0.328125q0 -1.671875 0.484375 -3.109375q0.5 -1.4375 1.40625 -2.5q0.921875 -1.078125 2.21875 -1.671875q1.3125 -0.59375 2.921875 -0.59375q1.640625 0 2.953125 0.59375q1.3125 0.59375 2.234375 1.671875q0.921875 1.0625 1.40625 2.5q0.484375 1.4375 0.484375 3.109375l0 0.328125q0 1.671875 -0.484375 3.109375q-0.484375 1.4374847 -1.40625 2.4999847q-0.921875 1.0625 -2.21875 1.65625q-1.296875 0.59375 -2.9375 0.59375q-1.625 0 -2.9375 -0.59375q-1.296875 -0.59375 -2.21875 -1.65625q-0.921875 -1.0625 -1.421875 -2.4999847q-0.484375 -1.4375 -0.484375 -3.109375zm2.65625 -0.328125l0 0.328125q0 1.15625 0.265625 2.1875q0.28125 1.015625 0.828125 1.8125q0.546875 0.78123474 1.375 1.2343597q0.84375 0.453125 1.9375 0.453125q1.09375 0 1.90625 -0.453125q0.828125 -0.453125 1.375 -1.2343597q0.546875 -0.796875 0.828125 -1.8125q0.28125 -1.03125 0.28125 -2.1875l0 -0.328125q0 -1.140625 -0.28125 -2.15625q-0.28125 -1.03125 -0.84375 -1.828125q-0.546875 -0.796875 -1.375 -1.25q-0.8125 -0.46875 -1.921875 -0.46875q-1.078125 0 -1.90625 0.46875q-0.828125 0.453125 -1.375 1.25q-0.546875 0.796875 -0.828125 1.828125q-0.265625 1.015625 -0.265625 2.15625z" fill-rule="nonzero"/><path fill="#212121" d="m647.94745 278.98126l0 2.203125l-7.828125 0l0 -2.203125l7.828125 0zm-7.453125 0l0 15.5l-2.640625 0l0 -15.5l2.640625 0zm9.796875 0l0 15.5l-2.65625 0l0 -15.5l2.65625 0zm3.5516357 7.921875l0 -0.328125q0 -1.671875 0.484375 -3.109375q0.5 -1.4375 1.40625 -2.5q0.921875 -1.078125 2.21875 -1.671875q1.3125 -0.59375 2.921875 -0.59375q1.640625 0 2.953125 0.59375q1.3125 0.59375 2.234375 1.671875q0.921875 1.0625 1.40625 2.5q0.484375 1.4375 0.484375 3.109375l0 0.328125q0 1.671875 -0.484375 3.109375q-0.484375 1.4375 -1.40625 2.5q-0.921875 1.0625 -2.21875 1.65625q-1.296875 0.59375 -2.9375 0.59375q-1.625 0 -2.9375 -0.59375q-1.296875 -0.59375 -2.21875 -1.65625q-0.921875 -1.0625 -1.421875 -2.5q-0.484375 -1.4375 -0.484375 -3.109375zm2.65625 -0.328125l0 0.328125q0 1.15625 0.265625 2.1875q0.28125 1.015625 0.828125 1.8125q0.546875 0.78125 1.375 1.234375q0.84375 0.453125 1.9375 0.453125q1.09375 0 1.90625 -0.453125q0.828125 -0.453125 1.375 -1.234375q0.546875 -0.796875 0.828125 -1.8125q0.28125 -1.03125 0.28125 -2.1875l0 -0.328125q0 -1.140625 -0.28125 -2.15625q-0.28125 -1.03125 -0.84375 -1.828125q-0.546875 -0.796875 -1.375 -1.25q-0.8125 -0.46875 -1.921875 -0.46875q-1.078125 0 -1.90625 0.46875q-0.828125 0.453125 -1.375 1.25q-0.546875 0.796875 -0.828125 1.828125q-0.265625 1.015625 -0.265625 2.15625zm17.429321 -4.609375l0 18.46875l-2.671875 0l0 -21.453125l2.4375 0l0.234375 2.984375zm10.4375 4.640625l0 0.296875q0 1.6875 -0.40625 3.140625q-0.390625 1.4375 -1.15625 2.5q-0.765625 1.046875 -1.890625 1.640625q-1.109375 0.578125 -2.5625 0.578125q-1.46875 0 -2.609375 -0.484375q-1.125 -0.484375 -1.921875 -1.40625q-0.78125 -0.9375 -1.25 -2.234375q-0.46875 -1.3125 -0.640625 -2.9375l0 -1.609375q0.171875 -1.71875 0.640625 -3.078125q0.484375 -1.359375 1.265625 -2.328125q0.78125 -0.96875 1.890625 -1.46875q1.125 -0.515625 2.578125 -0.515625q1.46875 0 2.59375 0.5625q1.140625 0.5625 1.90625 1.609375q0.78125 1.046875 1.171875 2.5q0.390625 1.453125 0.390625 3.234375zm-2.671875 0.296875l0 -0.296875q0 -1.15625 -0.25 -2.171875q-0.234375 -1.03125 -0.75 -1.8125q-0.5 -0.78125 -1.296875 -1.234375q-0.78125 -0.453125 -1.859375 -0.453125q-1.0 0 -1.75 0.34375q-0.734375 0.34375 -1.25 0.921875q-0.515625 0.578125 -0.84375 1.328125q-0.3125 0.734375 -0.46875 1.515625l0 3.703125q0.28125 1.015625 0.796875 1.890625q0.515625 0.875 1.375 1.421875q0.859375 0.53125 2.171875 0.53125q1.0625 0 1.84375 -0.453125q0.78125 -0.453125 1.28125 -1.234375q0.515625 -0.796875 0.75 -1.8125q0.25 -1.03125 0.25 -2.1875zm9.187195 0.1875l2.859375 0l-4.484375 7.390625l-2.859375 0l4.484375 -7.390625zm2.21875 -8.109375l6.46875 0l0 15.5l-2.640625 0l0 -13.34375l-3.828125 0q-1.125 0 -1.84375 0.375q-0.71875 0.375 -1.046875 0.984375q-0.328125 0.59375 -0.328125 1.25q0 0.625 0.296875 1.203125q0.296875 0.578125 0.9375 0.953125q0.65625 0.375 1.671875 0.375l4.859375 0l0 2.171875l-4.859375 0q-1.328125 0 -2.359375 -0.359375q-1.03125 -0.359375 -1.75 -0.984375q-0.71875 -0.640625 -1.09375 -1.5q-0.375 -0.875 -0.375 -1.890625q0 -1.015625 0.390625 -1.875q0.40625 -0.859375 1.15625 -1.5q0.75 -0.65625 1.84375 -1.0q1.09375 -0.359375 2.5 -0.359375zm13.53363 0l2.640625 0l-0.21875 5.8125q-0.09375 2.203125 -0.515625 3.8125q-0.40625 1.59375 -1.046875 2.71875q-0.640625 1.125 -1.4375 1.890625q-0.796875 0.75 -1.640625 1.265625l-1.3125 0l0.0625 -2.15625l0.546875 -0.015625q0.46875 -0.5625 0.90625 -1.15625q0.453125 -0.59375 0.828125 -1.421875q0.375 -0.828125 0.625 -2.015625q0.25 -1.203125 0.3125 -2.921875l0.25 -5.8125zm0.65625 0l9.328125 0l0 15.5l-2.65625 0l0 -13.046875l-6.671875 0l0 -2.453125zm-4.796875 13.328125l16.109375 0l0 6.734375l-2.640625 0l0 -4.5625l-10.8125 0l0 4.5625l-2.671875 0l0.015625 -6.734375zm21.918701 -13.328125l0 15.5l-2.640625 0l0 -15.5l2.640625 0zm10.171875 0l-7.34375 8.890625l-3.703125 0l-0.40625 -2.328125l3.03125 0l5.203125 -6.5625l3.21875 0zm-2.84375 15.5l-5.703125 -7.015625l1.703125 -1.921875l7.359375 8.9375l-3.359375 0zm14.790161 -2.65625l0 -7.96875q0 -0.921875 -0.375 -1.59375q-0.359375 -0.6875 -1.09375 -1.046875q-0.71875 -0.375 -1.796875 -0.375q-1.0 0 -1.75 0.34375q-0.75 0.34375 -1.171875 0.90625q-0.421875 0.546875 -0.421875 1.1875l-2.65625 0q0 -0.828125 0.421875 -1.640625q0.4375 -0.8125 1.25 -1.484375q0.8125 -0.671875 1.9375 -1.0625q1.140625 -0.390625 2.546875 -0.390625q1.6875 0 2.984375 0.578125q1.296875 0.5625 2.03125 1.71875q0.75 1.15625 0.75 2.890625l0 7.21875q0 0.765625 0.125 1.640625q0.140625 0.875 0.40625 1.5l0 0.234375l-2.765625 0q-0.1875 -0.453125 -0.3125 -1.21875q-0.109375 -0.765625 -0.109375 -1.4375zm0.453125 -6.734375l0.03125 1.859375l-2.671875 0q-1.140625 0 -2.03125 0.1875q-0.875 0.171875 -1.484375 0.53125q-0.59375 0.359375 -0.921875 0.890625q-0.3125 0.53125 -0.3125 1.25q0 0.734375 0.328125 1.34375q0.34375 0.59375 1.0 0.953125q0.671875 0.34375 1.640625 0.34375q1.21875 0 2.140625 -0.515625q0.9375 -0.515625 1.484375 -1.25q0.5625 -0.75 0.59375 -1.453125l1.140625 1.265625q-0.109375 0.609375 -0.546875 1.34375q-0.4375 0.71875 -1.1875 1.390625q-0.734375 0.65625 -1.75 1.09375q-1.0 0.4375 -2.265625 0.4375q-1.5625 0 -2.75 -0.609375q-1.1875 -0.609375 -1.84375 -1.640625q-0.640625 -1.046875 -0.640625 -2.34375q0 -1.25 0.484375 -2.1875q0.484375 -0.953125 1.40625 -1.59375q0.921875 -0.640625 2.203125 -0.96875q1.296875 -0.328125 2.875 -0.328125l3.078125 0z" fill-rule="nonzero"/></g></svg>