<svg version="1.1" viewBox="0.0 0.0 960.0 540.0" fill="none" stroke="none" stroke-linecap="square" stroke-miterlimit="10" xmlns:xlink="http://www.w3.org/1999/xlink" xmlns="http://www.w3.org/2000/svg"><clipPath id="g36c326e7edb_0_50.0"><path d="m0 0l960.0 0l0 540.0l-960.0 0l0 -540.0z" clip-rule="nonzero"/></clipPath><g clip-path="url(#g36c326e7edb_0_50.0)"><path fill="#ffffff" d="m0 0l960.0 0l0 540.0l-960.0 0z" fill-rule="evenodd"/><path fill="#000000" fill-opacity="0.0" d="m889.4969 489.57657l57.606323 0l0 41.322845l-57.606323 0z" fill-rule="evenodd"/><path fill="#eeeeee" d="m297.61942 71.698166l0 0c0 -6.923134 6.084717 -12.535435 13.590546 -12.535435l0 0c7.5058594 0 13.590576 5.612301 13.590576 12.535435l0 0c0 6.923126 -6.084717 12.535431 -13.590576 12.535431l0 0c-7.505829 0 -13.590546 -5.6123047 -13.590546 -12.535431z" fill-rule="evenodd"/><path stroke="#212121" stroke-width="4.0" stroke-linejoin="round" stroke-linecap="butt" d="m297.61942 71.698166l0 0c0 -6.923134 6.084717 -12.535435 13.590546 -12.535435l0 0c7.5058594 0 13.590576 5.612301 13.590576 12.535435l0 0c0 6.923126 -6.084717 12.535431 -13.590576 12.535431l0 0c-7.505829 0 -13.590546 -5.6123047 -13.590546 -12.535431z" fill-rule="evenodd"/><path fill="#eeeeee" d="m200.4252 159.83464l0 0c0 -6.923126 6.0846863 -12.535431 13.590546 -12.535431l0 0c7.5058594 0 13.590546 5.6123047 13.590546 12.535431l0 0c0 6.923126 -6.0846863 12.535431 -13.590546 12.535431l0 0c-7.5058594 0 -13.590546 -5.6123047 -13.590546 -12.535431z" fill-rule="evenodd"/><path stroke="#212121" stroke-width="1.0" stroke-linejoin="round" stroke-linecap="butt" d="m200.4252 159.83464l0 0c0 -6.923126 6.0846863 -12.535431 13.590546 -12.535431l0 0c7.5058594 0 13.590546 5.6123047 13.590546 12.535431l0 0c0 6.923126 -6.0846863 12.535431 -13.590546 12.535431l0 0c-7.5058594 0 -13.590546 -5.6123047 -13.590546 -12.535431z" fill-rule="evenodd"/><path fill="#999999" d="m431.03674 175.53543l0 0c0 -6.923126 6.0846863 -12.535431 13.590546 -12.535431l0 0c7.5058594 0 13.590546 5.6123047 13.590546 12.535431l0 0c0 6.923126 -6.0846863 12.535431 -13.590546 12.535431l0 0c-7.5058594 0 -13.590546 -5.6123047 -13.590546 -12.535431z" fill-rule="evenodd"/><path stroke="#212121" stroke-width="4.0" stroke-linejoin="round" stroke-linecap="butt" d="m431.03674 175.53543l0 0c0 -6.923126 6.0846863 -12.535431 13.590546 -12.535431l0 0c7.5058594 0 13.590546 5.6123047 13.590546 12.535431l0 0c0 6.923126 -6.0846863 12.535431 -13.590546 12.535431l0 0c-7.5058594 0 -13.590546 -5.6123047 -13.590546 -12.535431z" fill-rule="evenodd"/><path fill="#3178c6" d="m313.62204 249.94357l0 0c0 -6.923126 6.084717 -12.535431 13.590546 -12.535431l0 0c7.5058594 0 13.590576 5.6123047 13.590576 12.535431l0 0c0 6.923126 -6.084717 12.535431 -13.590576 12.535431l0 0c-7.505829 0 -13.590546 -5.6123047 -13.590546 -12.535431z" fill-rule="evenodd"/><path stroke="#0000ff" stroke-width="4.0" stroke-linejoin="round" stroke-linecap="butt" d="m313.62204 249.94357l0 0c0 -6.923126 6.084717 -12.535431 13.590546 -12.535431l0 0c7.5058594 0 13.590576 5.6123047 13.590576 12.535431l0 0c0 6.923126 -6.084717 12.535431 -13.590576 12.535431l0 0c-7.505829 0 -13.590546 -5.6123047 -13.590546 -12.535431z" fill-rule="evenodd"/><path fill="#3178c6" d="m488.43832 299.90027l0 0c0 -6.923126 6.0846863 -12.535431 13.590546 -12.535431l0 0c7.5058594 0 13.590576 5.6123047 13.590576 12.535431l0 0c0 6.923126 -6.084717 12.535431 -13.590576 12.535431l0 0c-7.5058594 0 -13.590546 -5.6123047 -13.590546 -12.535431z" fill-rule="evenodd"/><path stroke="#0000ff" stroke-width="4.0" stroke-linejoin="round" stroke-linecap="butt" d="m488.43832 299.90027l0 0c0 -6.923126 6.0846863 -12.535431 13.590546 -12.535431l0 0c7.5058594 0 13.590576 5.6123047 13.590576 12.535431l0 0c0 6.923126 -6.084717 12.535431 -13.590576 12.535431l0 0c-7.5058594 0 -13.590546 -5.6123047 -13.590546 -12.535431z" fill-rule="evenodd"/><path fill="#eeeeee" d="m135.83989 280.88452l0 0c0 -6.923126 6.0847015 -12.535431 13.590561 -12.535431l0 0c7.505844 0 13.590546 5.6123047 13.590546 12.535431l0 0c0 6.923126 -6.0847015 12.535431 -13.590546 12.535431l0 0c-7.5058594 0 -13.590561 -5.6123047 -13.590561 -12.535431z" fill-rule="evenodd"/><path stroke="#212121" stroke-width="1.0" stroke-linejoin="round" stroke-linecap="butt" d="m135.83989 280.88452l0 0c0 -6.923126 6.0847015 -12.535431 13.590561 -12.535431l0 0c7.505844 0 13.590546 5.6123047 13.590546 12.535431l0 0c0 6.923126 -6.0847015 12.535431 -13.590546 12.535431l0 0c-7.5058594 0 -13.590561 -5.6123047 -13.590561 -12.535431z" fill-rule="evenodd"/><path fill="#eeeeee" d="m324.80054 461.08923l0 0c0 -6.923126 6.0846863 -12.535431 13.590546 -12.535431l0 0c7.5058594 0 13.590546 5.6123047 13.590546 12.535431l0 0c0 6.923126 -6.0846863 12.535431 -13.590546 12.535431l0 0c-7.5058594 0 -13.590546 -5.6123047 -13.590546 -12.535431z" fill-rule="evenodd"/><path stroke="#212121" stroke-width="4.0" stroke-linejoin="round" stroke-linecap="butt" d="m324.80054 461.08923l0 0c0 -6.923126 6.0846863 -12.535431 13.590546 -12.535431l0 0c7.5058594 0 13.590546 5.6123047 13.590546 12.535431l0 0c0 6.923126 -6.0846863 12.535431 -13.590546 12.535431l0 0c-7.5058594 0 -13.590546 -5.6123047 -13.590546 -12.535431z" fill-rule="evenodd"/><path fill="#eeeeee" d="m223.07611 362.70865l0 0c0 -6.923126 6.0847015 -12.535431 13.590561 -12.535431l0 0c7.505844 0 13.590546 5.6123047 13.590546 12.535431l0 0c0 6.923126 -6.0847015 12.535431 -13.590546 12.535431l0 0c-7.5058594 0 -13.590561 -5.6123047 -13.590561 -12.535431z" fill-rule="evenodd"/><path stroke="#212121" stroke-width="1.0" stroke-linejoin="round" stroke-linecap="butt" d="m223.07611 362.70865l0 0c0 -6.923126 6.0847015 -12.535431 13.590561 -12.535431l0 0c7.505844 0 13.590546 5.6123047 13.590546 12.535431l0 0c0 6.923126 -6.0847015 12.535431 -13.590546 12.535431l0 0c-7.5058594 0 -13.590561 -5.6123047 -13.590561 -12.535431z" fill-rule="evenodd"/><path fill="#999999" d="m391.5092 372.6509l0 0c0 -6.923126 6.0846863 -12.535431 13.590546 -12.535431l0 0c7.5058594 0 13.590546 5.6123047 13.590546 12.535431l0 0c0 6.923126 -6.0846863 12.535431 -13.590546 12.535431l0 0c-7.5058594 0 -13.590546 -5.6123047 -13.590546 -12.535431z" fill-rule="evenodd"/><path stroke="#212121" stroke-width="4.0" stroke-linejoin="round" stroke-linecap="butt" d="m391.5092 372.6509l0 0c0 -6.923126 6.0846863 -12.535431 13.590546 -12.535431l0 0c7.5058594 0 13.590546 5.6123047 13.590546 12.535431l0 0c0 6.923126 -6.0846863 12.535431 -13.590546 12.535431l0 0c-7.5058594 0 -13.590546 -5.6123047 -13.590546 -12.535431z" fill-rule="evenodd"/><path fill="#000000" fill-opacity="0.0" d="m328.7811 452.22534l-82.519684 -80.66141" fill-rule="evenodd"/><path stroke="#212121" stroke-width="1.0" stroke-linejoin="round" stroke-linecap="butt" d="m328.7811 452.22534l-78.22899 -76.46735" fill-rule="evenodd"/><path fill="#212121" stroke="#212121" stroke-width="1.0" stroke-linecap="butt" d="m251.70668 374.5768l-4.3998413 -1.9909973l2.090683 4.353363z" fill-rule="evenodd"/><path fill="#000000" fill-opacity="0.0" d="m348.00104 452.22534l47.496063 -70.70865" fill-rule="evenodd"/><path stroke="#212121" stroke-width="1.0" stroke-linejoin="round" stroke-linecap="butt" d="m348.00107 452.22534l44.15045 -65.72797" fill-rule="evenodd"/><path fill="#212121" stroke="#212121" stroke-width="1.0" stroke-linecap="butt" d="m393.52267 387.41837l1.1593018 -4.688141l-3.9015503 2.8461304z" fill-rule="evenodd"/><path fill="#000000" fill-opacity="0.0" d="m227.0567 353.84476l-68.03151 -64.09448" fill-rule="evenodd"/><path stroke="#212121" stroke-width="1.0" stroke-linejoin="round" stroke-linecap="butt" d="m227.0567 353.8448l-63.664368 -59.980103" fill-rule="evenodd"/><path fill="#212121" stroke="#212121" stroke-width="1.0" stroke-linecap="butt" d="m164.52496 292.66248l-4.4357147 -1.909729l2.1704254 4.314148z" fill-rule="evenodd"/><path fill="#000000" fill-opacity="0.0" d="m414.70972 363.78702l77.700775 -55.02362" fill-rule="evenodd"/><path stroke="#212121" stroke-width="1.0" stroke-linejoin="round" stroke-linecap="butt" d="m414.70972 363.78702l72.80423 -51.55612" fill-rule="evenodd"/><path fill="#212121" stroke="#212121" stroke-width="1.0" stroke-linecap="butt" d="m488.4685 313.5789l2.7489624 -3.9706116l-4.658081 1.2746582z" fill-rule="evenodd"/><path fill="#000000" fill-opacity="0.0" d="m395.48978 363.78702l-58.677185 -104.97638" fill-rule="evenodd"/><path stroke="#212121" stroke-width="1.0" stroke-linejoin="round" stroke-linecap="butt" d="m395.48975 363.78702l-55.749695 -99.73898" fill-rule="evenodd"/><path fill="#212121" stroke="#212121" stroke-width="1.0" stroke-linecap="butt" d="m341.18185 263.24213l-3.6559753 -3.1553955l0.7723999 4.7671814z" fill-rule="evenodd"/><path fill="#000000" fill-opacity="0.0" d="m246.27664 353.84476l71.33859 -95.02362" fill-rule="evenodd"/><path stroke="#212121" stroke-width="1.0" stroke-linejoin="round" stroke-linecap="butt" d="m246.27664 353.8448l67.7363 -90.22534" fill-rule="evenodd"/><path fill="#212121" stroke="#212121" stroke-width="1.0" stroke-linecap="butt" d="m315.33383 264.6111l1.4036865 -4.6208496l-4.0455017 2.6375122z" fill-rule="evenodd"/><path fill="#000000" fill-opacity="0.0" d="m236.66142 350.16534l-22.645676 -177.79527" fill-rule="evenodd"/><path stroke="#212121" stroke-width="1.0" stroke-linejoin="round" stroke-linecap="butt" d="m236.66142 350.16534l-21.887573 -171.84335" fill-rule="evenodd"/><path fill="#212121" stroke="#212121" stroke-width="1.0" stroke-linecap="butt" d="m216.41234 178.1133l-2.2118835 -4.29303l-1.0651093 4.7104187z" fill-rule="evenodd"/><path fill="#000000" fill-opacity="0.0" d="m149.43045 268.3491l54.960632 -99.65355" fill-rule="evenodd"/><path stroke="#212121" stroke-width="1.0" stroke-linejoin="round" stroke-linecap="butt" d="m149.43045 268.3491l52.06299 -94.39964" fill-rule="evenodd"/><path fill="#212121" stroke="#212121" stroke-width="1.0" stroke-linecap="butt" d="m202.93979 174.74715l0.74528503 -4.7714844l-3.63797 3.176117z" fill-rule="evenodd"/><path fill="#000000" fill-opacity="0.0" d="m223.62572 150.97075l77.98427 -70.39369" fill-rule="evenodd"/><path stroke="#212121" stroke-width="1.0" stroke-linejoin="round" stroke-linecap="butt" d="m223.62572 150.97076l73.53038 -66.37337" fill-rule="evenodd"/><path fill="#212121" stroke="#212121" stroke-width="1.0" stroke-linecap="butt" d="m298.26288 85.823494l2.2619019 -4.266884l-4.4754333 1.8146896z" fill-rule="evenodd"/><path fill="#000000" fill-opacity="0.0" d="m435.01733 166.67154l-114.20474 -86.11023" fill-rule="evenodd"/><path stroke="#212121" stroke-width="1.0" stroke-linejoin="round" stroke-linecap="butt" d="m435.0173 166.67154l-109.41391 -82.497986" fill-rule="evenodd"/><path fill="#212121" stroke="#212121" stroke-width="1.0" stroke-linecap="butt" d="m326.5978 82.854706l-4.61792 -1.4132767l2.6290894 4.0509796z" fill-rule="evenodd"/><path fill="#000000" fill-opacity="0.0" d="m336.82257 241.07968l98.20471 -56.692917" fill-rule="evenodd"/><path stroke="#212121" stroke-width="1.0" stroke-linejoin="round" stroke-linecap="butt" d="m336.82257 241.07968l93.00845 -53.69313" fill-rule="evenodd"/><path fill="#212121" stroke="#212121" stroke-width="1.0" stroke-linecap="butt" d="m430.65683 188.81703l3.1044006 -3.6993713l-4.756012 0.8384094z" fill-rule="evenodd"/><path fill="#000000" fill-opacity="0.0" d="m327.2126 237.40814l-16.0 -153.16536" fill-rule="evenodd"/><path stroke="#212121" stroke-width="1.0" stroke-linejoin="round" stroke-linecap="butt" d="m327.2126 237.40814l-15.376617 -147.19783" fill-rule="evenodd"/><path fill="#212121" stroke="#212121" stroke-width="1.0" stroke-linecap="butt" d="m313.47876 90.038704l-2.1142883 -4.341934l-1.1712952 4.68515z" fill-rule="evenodd"/><path fill="#000000" fill-opacity="0.0" d="m492.40683 291.0315l-47.77954 -102.96063" fill-rule="evenodd"/><path stroke="#212121" stroke-width="1.0" stroke-linejoin="round" stroke-linecap="butt" d="m492.40683 291.0315l-45.253906 -97.5181" fill-rule="evenodd"/><path fill="#212121" stroke="#212121" stroke-width="1.0" stroke-linecap="butt" d="m448.6512 192.81812l-3.4085388 -3.421173l0.4119873 4.811737z" fill-rule="evenodd"/><path fill="#000000" fill-opacity="0.0" d="m552.5617 121.64304l331.87396 0l0 54.92913l-331.87396 0z" fill-rule="evenodd"/><path fill="#212121" d="m571.6867 137.95929l0 20.84375l-2.71875 0l0 -20.84375l2.71875 0zm6.703125 0l0 2.25l-16.109375 0l0 -2.25l16.109375 0zm0.56585693 13.265625l0 -0.328125q0 -1.671875 0.484375 -3.109375q0.5 -1.4375 1.40625 -2.5q0.921875 -1.078125 2.21875 -1.671875q1.3125 -0.59375 2.921875 -0.59375q1.640625 0 2.953125 0.59375q1.3125 0.59375 2.234375 1.671875q0.921875 1.0625 1.40625 2.5q0.484375 1.4375 0.484375 3.109375l0 0.328125q0 1.671875 -0.484375 3.109375q-0.484375 1.4375 -1.40625 2.5q-0.921875 1.0625 -2.21875 1.65625q-1.296875 0.59375 -2.9375 0.59375q-1.625 0 -2.9375 -0.59375q-1.296875 -0.59375 -2.21875 -1.65625q-0.921875 -1.0625 -1.421875 -2.5q-0.484375 -1.4375 -0.484375 -3.109375zm2.65625 -0.328125l0 0.328125q0 1.15625 0.265625 2.1875q0.28125 1.015625 0.828125 1.8125q0.546875 0.78125 1.375 1.234375q0.84375 0.453125 1.9375 0.453125q1.09375 0 1.90625 -0.453125q0.828125 -0.453125 1.375 -1.234375q0.546875 -0.796875 0.828125 -1.8125q0.28125 -1.03125 0.28125 -2.1875l0 -0.328125q0 -1.140625 -0.28125 -2.15625q-0.28125 -1.03125 -0.84375 -1.828125q-0.546875 -0.796875 -1.375 -1.25q-0.8125 -0.46875 -1.921875 -0.46875q-1.078125 0 -1.90625 0.46875q-0.828125 0.453125 -1.375 1.25q-0.546875 0.796875 -0.828125 1.828125q-0.265625 1.015625 -0.265625 2.15625zm26.460571 -7.59375l0 15.5l-2.640625 0l0 -15.5l2.640625 0zm-0.90625 7.125l0 2.171875q-0.796875 0.296875 -1.625 0.546875q-0.8125 0.234375 -1.734375 0.375q-0.90625 0.125 -1.96875 0.125q-1.828125 0 -3.171875 -0.640625q-1.34375 -0.640625 -2.078125 -1.921875q-0.734375 -1.296875 -0.734375 -3.28125l0 -4.515625l2.65625 0l0 4.515625q0 1.296875 0.375 2.09375q0.390625 0.796875 1.140625 1.1875q0.75 0.375 1.8125 0.375q1.03125 0 1.9375 -0.140625q0.921875 -0.140625 1.75 -0.359375q0.84375 -0.234375 1.640625 -0.53125zm15.687317 -0.40625l0 2.15625l-8.1875 0l0 -2.15625l8.1875 0zm-7.640625 -6.71875l0 15.5l-2.640625 0l0 -15.5l2.640625 0zm9.78125 0l0 15.5l-2.65625 0l0 -15.5l2.65625 0zm13.3967285 12.84375l0 -7.96875q0 -0.921875 -0.375 -1.59375q-0.359375 -0.6875 -1.09375 -1.046875q-0.71875 -0.375 -1.796875 -0.375q-1.0 0 -1.75 0.34375q-0.75 0.34375 -1.171875 0.90625q-0.421875 0.546875 -0.421875 1.1875l-2.65625 0q0 -0.828125 0.421875 -1.640625q0.4375 -0.8125 1.25 -1.484375q0.8125 -0.671875 1.9375 -1.0625q1.140625 -0.390625 2.546875 -0.390625q1.6875 0 2.984375 0.578125q1.296875 0.5625 2.03125 1.71875q0.75 1.15625 0.75 2.890625l0 7.21875q0 0.765625 0.125 1.640625q0.140625 0.875 0.40625 1.5l0 0.234375l-2.765625 0q-0.1875 -0.453125 -0.3125 -1.21875q-0.109375 -0.765625 -0.109375 -1.4375zm0.453125 -6.734375l0.03125 1.859375l-2.671875 0q-1.140625 0 -2.03125 0.1875q-0.875 0.171875 -1.484375 0.53125q-0.59375 0.359375 -0.921875 0.890625q-0.3125 0.53125 -0.3125 1.25q0 0.734375 0.328125 1.34375q0.34375 0.59375 1.0 0.953125q0.671875 0.34375 1.640625 0.34375q1.21875 0 2.140625 -0.515625q0.9375 -0.515625 1.484375 -1.25q0.5625 -0.75 0.59375 -1.453125l1.140625 1.265625q-0.109375 0.609375 -0.546875 1.34375q-0.4375 0.71875 -1.1875 1.390625q-0.734375 0.65625 -1.75 1.09375q-1.0 0.4375 -2.265625 0.4375q-1.5625 0 -2.75 -0.609375q-1.1875 -0.609375 -1.84375 -1.640625q-0.640625 -1.046875 -0.640625 -2.34375q0 -1.25 0.484375 -2.1875q0.484375 -0.953125 1.40625 -1.59375q0.921875 -0.640625 2.203125 -0.96875q1.296875 -0.328125 2.875 -0.328125l3.078125 0zm9.499756 2.0l2.859375 0l-4.484375 7.390625l-2.859375 0l4.484375 -7.390625zm2.21875 -8.109375l6.46875 0l0 15.5l-2.640625 0l0 -13.34375l-3.828125 0q-1.125 0 -1.84375 0.375q-0.71875 0.375 -1.046875 0.984375q-0.328125 0.59375 -0.328125 1.25q0 0.625 0.296875 1.203125q0.296875 0.578125 0.9375 0.953125q0.65625 0.375 1.671875 0.375l4.859375 0l0 2.171875l-4.859375 0q-1.328125 0 -2.359375 -0.359375q-1.03125 -0.359375 -1.75 -0.984375q-0.71875 -0.640625 -1.09375 -1.5q-0.375 -0.875 -0.375 -1.890625q0 -1.015625 0.390625 -1.875q0.40625 -0.859375 1.15625 -1.5q0.75 -0.65625 1.84375 -1.0q1.09375 -0.359375 2.5 -0.359375zm25.292725 8.6875l-5.09375 0l-0.015625 -2.125l4.140625 0q1.234375 0 2.0625 -0.234375q0.828125 -0.25 1.234375 -0.734375q0.421875 -0.484375 0.421875 -1.203125q0 -0.5625 -0.234375 -0.984375q-0.234375 -0.421875 -0.71875 -0.703125q-0.46875 -0.28125 -1.171875 -0.40625q-0.6875 -0.140625 -1.609375 -0.140625l-3.40625 0l0 13.34375l-2.640625 0l0 -15.5l6.046875 0q1.46875 0 2.640625 0.265625q1.1875 0.25 2.015625 0.78125q0.84375 0.515625 1.28125 1.328125q0.453125 0.796875 0.453125 1.890625q0 0.6875 -0.28125 1.328125q-0.28125 0.625 -0.84375 1.109375q-0.5625 0.484375 -1.375 0.796875q-0.8125 0.3125 -1.875 0.390625l-1.03125 0.796875zm0 6.8125l-6.046875 0l1.3125 -2.140625l4.734375 0q1.09375 0 1.828125 -0.28125q0.734375 -0.28125 1.09375 -0.796875q0.375 -0.53125 0.375 -1.265625q0 -0.734375 -0.375 -1.25q-0.359375 -0.53125 -1.09375 -0.796875q-0.734375 -0.28125 -1.828125 -0.28125l-4.03125 0l0.03125 -2.125l5.03125 0l0.953125 0.796875q1.28125 0.109375 2.15625 0.640625q0.890625 0.53125 1.34375 1.34375q0.46875 0.796875 0.46875 1.75q0 1.078125 -0.40625 1.921875q-0.40625 0.828125 -1.1875 1.375q-0.765625 0.546875 -1.875 0.828125q-1.09375 0.28125 -2.484375 0.28125zm15.925415 0.28125q-1.625 0 -2.9375 -0.546875q-1.3125 -0.546875 -2.25 -1.546875q-0.9375 -1.015625 -1.4375 -2.390625q-0.5 -1.375 -0.5 -3.0l0 -0.59375q0 -1.890625 0.5625 -3.375q0.5625 -1.484375 1.515625 -2.515625q0.96875 -1.03125 2.171875 -1.5625q1.21875 -0.53125 2.53125 -0.53125q1.65625 0 2.859375 0.578125q1.21875 0.5625 1.984375 1.59375q0.78125 1.015625 1.15625 2.40625q0.375 1.375 0.375 3.015625l0 1.1875l-11.578125 0l0 -2.171875l8.921875 0l0 -0.1875q-0.0625 -1.03125 -0.421875 -2.0q-0.359375 -0.984375 -1.15625 -1.609375q-0.78125 -0.640625 -2.140625 -0.640625q-0.90625 0 -1.671875 0.390625q-0.75 0.375 -1.296875 1.125q-0.546875 0.734375 -0.84375 1.8125q-0.296875 1.078125 -0.296875 2.484375l0 0.59375q0 1.109375 0.296875 2.078125q0.3125 0.953125 0.90625 1.6875q0.59375 0.734375 1.4375 1.15625q0.859375 0.40625 1.953125 0.40625q1.40625 0 2.375 -0.5625q0.96875 -0.578125 1.703125 -1.546875l1.609375 1.28125q-0.5 0.75 -1.28125 1.4375q-0.765625 0.6875 -1.890625 1.125q-1.125 0.421875 -2.65625 0.421875zm11.770691 -12.796875l0 18.46875l-2.671875 0l0 -21.453125l2.4375 0l0.234375 2.984375zm10.4375 4.640625l0 0.296875q0 1.6875 -0.40625 3.140625q-0.390625 1.4375 -1.15625 2.5q-0.765625 1.046875 -1.890625 1.640625q-1.109375 0.578125 -2.5625 0.578125q-1.46875 0 -2.609375 -0.484375q-1.125 -0.484375 -1.921875 -1.40625q-0.78125 -0.9375 -1.25 -2.234375q-0.46875 -1.3125 -0.640625 -2.9375l0 -1.609375q0.171875 -1.71875 0.640625 -3.078125q0.484375 -1.359375 1.265625 -2.328125q0.78125 -0.96875 1.890625 -1.46875q1.125 -0.515625 2.578125 -0.515625q1.46875 0 2.59375 0.5625q1.140625 0.5625 1.90625 1.609375q0.78125 1.046875 1.171875 2.5q0.390625 1.453125 0.390625 3.234375zm-2.671875 0.296875l0 -0.296875q0 -1.15625 -0.25 -2.171875q-0.234375 -1.03125 -0.75 -1.8125q-0.5 -0.78125 -1.296875 -1.234375q-0.78125 -0.453125 -1.859375 -0.453125q-1.0 0 -1.75 0.34375q-0.734375 0.34375 -1.25 0.921875q-0.515625 0.578125 -0.84375 1.328125q-0.3125 0.734375 -0.46875 1.515625l0 3.703125q0.28125 1.015625 0.796875 1.890625q0.515625 0.875 1.375 1.421875q0.859375 0.53125 2.171875 0.53125q1.0625 0 1.84375 -0.453125q0.78125 -0.453125 1.28125 -1.234375q0.515625 -0.796875 0.75 -1.8125q0.25 -1.03125 0.25 -2.1875zm7.628601 -7.921875l3.390625 5.640625l3.4375 -5.640625l3.109375 0l-5.078125 7.65625l5.234375 7.84375l-3.0625 0l-3.578125 -5.8125l-3.578125 5.8125l-3.09375 0l5.21875 -7.84375l-5.046875 -7.65625l3.046875 0zm23.26825 6.71875l0 2.15625l-8.1875 0l0 -2.15625l8.1875 0zm-7.640625 -6.71875l0 15.5l-2.640625 0l0 -15.5l2.640625 0zm9.78125 0l0 15.5l-2.65625 0l0 -15.5l2.65625 0zm7.3967285 8.109375l2.859375 0l-4.484375 7.390625l-2.859375 0l4.484375 -7.390625zm2.21875 -8.109375l6.46875 0l0 15.5l-2.640625 0l0 -13.34375l-3.828125 0q-1.125 0 -1.84375 0.375q-0.71875 0.375 -1.046875 0.984375q-0.328125 0.59375 -0.328125 1.25q0 0.625 0.296875 1.203125q0.296875 0.578125 0.9375 0.953125q0.65625 0.375 1.671875 0.375l4.859375 0l0 2.171875l-4.859375 0q-1.328125 0 -2.359375 -0.359375q-1.03125 -0.359375 -1.75 -0.984375q-0.71875 -0.640625 -1.09375 -1.5q-0.375 -0.875 -0.375 -1.890625q0 -1.015625 0.390625 -1.875q0.40625 -0.859375 1.15625 -1.5q0.75 -0.65625 1.84375 -1.0q1.09375 -0.359375 2.5 -0.359375zm13.877319 8.109375l2.859375 0l-4.484375 7.390625l-2.859375 0l4.484375 -7.390625zm2.21875 -8.109375l6.46875 0l0 15.5l-2.640625 0l0 -13.34375l-3.828125 0q-1.125 0 -1.84375 0.375q-0.71875 0.375 -1.046875 0.984375q-0.328125 0.59375 -0.328125 1.25q0 0.625 0.296875 1.203125q0.296875 0.578125 0.9375 0.953125q0.65625 0.375 1.671875 0.375l4.859375 0l0 2.171875l-4.859375 0q-1.328125 0 -2.359375 -0.359375q-1.03125 -0.359375 -1.75 -0.984375q-0.71875 -0.640625 -1.09375 -1.5q-0.375 -0.875 -0.375 -1.890625q0 -1.015625 0.390625 -1.875q0.40625 -0.859375 1.15625 -1.5q0.75 -0.65625 1.84375 -1.0q1.09375 -0.359375 2.5 -0.359375zm28.0271 0l0 2.203125l-7.15625 0l0 13.296875l-2.65625 0l0 -15.5l9.8125 0zm4.9561768 2.984375l0 18.46875l-2.671875 0l0 -21.453125l2.4375 0l0.234375 2.984375zm10.4375 4.640625l0 0.296875q0 1.6875 -0.40625 3.140625q-0.390625 1.4375 -1.15625 2.5q-0.765625 1.046875 -1.890625 1.640625q-1.109375 0.578125 -2.5625 0.578125q-1.46875 0 -2.609375 -0.484375q-1.125 -0.484375 -1.921875 -1.40625q-0.78125 -0.9375 -1.25 -2.234375q-0.46875 -1.3125 -0.640625 -2.9375l0 -1.609375q0.171875 -1.71875 0.640625 -3.078125q0.484375 -1.359375 1.265625 -2.328125q0.78125 -0.96875 1.890625 -1.46875q1.125 -0.515625 2.578125 -0.515625q1.46875 0 2.59375 0.5625q1.140625 0.5625 1.90625 1.609375q0.78125 1.046875 1.171875 2.5q0.390625 1.453125 0.390625 3.234375zm-2.671875 0.296875l0 -0.296875q0 -1.15625 -0.25 -2.171875q-0.234375 -1.03125 -0.75 -1.8125q-0.5 -0.78125 -1.296875 -1.234375q-0.78125 -0.453125 -1.859375 -0.453125q-1.0 0 -1.75 0.34375q-0.734375 0.34375 -1.25 0.921875q-0.515625 0.578125 -0.84375 1.328125q-0.3125 0.734375 -0.46875 1.515625l0 3.703125q0.28125 1.015625 0.796875 1.890625q0.515625 0.875 1.375 1.421875q0.859375 0.53125 2.171875 0.53125q1.0625 0 1.84375 -0.453125q0.78125 -0.453125 1.28125 -1.234375q0.515625 -0.796875 0.75 -1.8125q0.25 -1.03125 0.25 -2.1875zm15.187195 4.921875l0 -7.96875q0 -0.921875 -0.375 -1.59375q-0.359375 -0.6875 -1.09375 -1.046875q-0.71875 -0.375 -1.796875 -0.375q-1.0 0 -1.75 0.34375q-0.75 0.34375 -1.171875 0.90625q-0.421875 0.546875 -0.421875 1.1875l-2.65625 0q0 -0.828125 0.421875 -1.640625q0.4375 -0.8125 1.25 -1.484375q0.8125 -0.671875 1.9375 -1.0625q1.140625 -0.390625 2.546875 -0.390625q1.6875 0 2.984375 0.578125q1.296875 0.5625 2.03125 1.71875q0.75 1.15625 0.75 2.890625l0 7.21875q0 0.765625 0.125 1.640625q0.140625 0.875 0.40625 1.5l0 0.234375l-2.765625 0q-0.1875 -0.453125 -0.3125 -1.21875q-0.109375 -0.765625 -0.109375 -1.4375zm0.453125 -6.734375l0.03125 1.859375l-2.671875 0q-1.140625 0 -2.03125 0.1875q-0.875 0.171875 -1.484375 0.53125q-0.59375 0.359375 -0.921875 0.890625q-0.3125 0.53125 -0.3125 1.25q0 0.734375 0.328125 1.34375q0.34375 0.59375 1.0 0.953125q0.671875 0.34375 1.640625 0.34375q1.21875 0 2.140625 -0.515625q0.9375 -0.515625 1.484375 -1.25q0.5625 -0.75 0.59375 -1.453125l1.140625 1.265625q-0.109375 0.609375 -0.546875 1.34375q-0.4375 0.71875 -1.1875 1.390625q-0.734375 0.65625 -1.75 1.09375q-1.0 0.4375 -2.265625 0.4375q-1.5625 0 -2.75 -0.609375q-1.1875 -0.609375 -1.84375 -1.640625q-0.640625 -1.046875 -0.640625 -2.34375q0 -1.25 0.484375 -2.1875q0.484375 -0.953125 1.40625 -1.59375q0.921875 -0.640625 2.203125 -0.96875q1.296875 -0.328125 2.875 -0.328125l3.078125 0zm16.874756 0.609375l0 2.15625l-8.1875 0l0 -2.15625l8.1875 0zm-7.640625 -6.71875l0 15.5l-2.640625 0l0 -15.5l2.640625 0zm9.78125 0l0 15.5l-2.65625 0l0 -15.5l2.65625 0zm6.4436035 5.328125l4.640625 0q1.875 0 3.15625 0.65625q1.296875 0.65625 1.96875 1.796875q0.671875 1.125 0.671875 2.578125q0 1.078125 -0.375 2.015625q-0.375 0.9375 -1.109375 1.640625q-0.734375 0.703125 -1.828125 1.09375q-1.078125 0.390625 -2.484375 0.390625l-6.578125 0l0 -15.5l2.640625 0l0 13.328125l3.9375 0q1.15625 0 1.84375 -0.40625q0.6875 -0.421875 0.984375 -1.078125q0.296875 -0.671875 0.296875 -1.390625q0 -0.703125 -0.296875 -1.375q-0.296875 -0.671875 -0.984375 -1.109375q-0.6875 -0.453125 -1.84375 -0.453125l-4.640625 0l0 -2.1875z" fill-rule="nonzero"/><path fill="#000000" fill-opacity="0.0" d="m552.5617 149.1076l-98.33075 17.574814" fill-rule="evenodd"/><path stroke="#212121" stroke-width="1.0" stroke-linejoin="round" stroke-linecap="butt" d="m552.5617 149.1076l-98.33075 17.574814" fill-rule="evenodd"/><path fill="#000000" fill-opacity="0.0" d="m540.72705 376.98163l336.22046 0l0 54.92914l-336.22046 0z" fill-rule="evenodd"/><path fill="#212121" d="m559.85205 393.29788l0 20.84375l-2.71875 0l0 -20.84375l2.71875 0zm6.703125 0l0 2.25l-16.109375 0l0 -2.25l16.109375 0zm0.56585693 13.265625l0 -0.328125q0 -1.671875 0.484375 -3.109375q0.5 -1.4375 1.40625 -2.5q0.921875 -1.078125 2.21875 -1.671875q1.3125 -0.59375 2.921875 -0.59375q1.640625 0 2.953125 0.59375q1.3125 0.59375 2.234375 1.671875q0.921875 1.0625 1.40625 2.5q0.484375 1.4375 0.484375 3.109375l0 0.328125q0 1.671875 -0.484375 3.109375q-0.484375 1.4375 -1.40625 2.5q-0.921875 1.0625 -2.21875 1.65625q-1.296875 0.59375 -2.9375 0.59375q-1.625 0 -2.9375 -0.59375q-1.296875 -0.59375 -2.21875 -1.65625q-0.921875 -1.0625 -1.421875 -2.5q-0.484375 -1.4375 -0.484375 -3.109375zm2.65625 -0.328125l0 0.328125q0 1.15625 0.265625 2.1875q0.28125 1.015625 0.828125 1.8125q0.546875 0.78125 1.375 1.234375q0.84375 0.453125 1.9375 0.453125q1.09375 0 1.90625 -0.453125q0.828125 -0.453125 1.375 -1.234375q0.546875 -0.796875 0.828125 -1.8125q0.28125 -1.03125 0.28125 -2.1875l0 -0.328125q0 -1.140625 -0.28125 -2.15625q-0.28125 -1.03125 -0.84375 -1.828125q-0.546875 -0.796875 -1.375 -1.25q-0.8125 -0.46875 -1.921875 -0.46875q-1.078125 0 -1.90625 0.46875q-0.828125 0.453125 -1.375 1.25q-0.546875 0.796875 -0.828125 1.828125q-0.265625 1.015625 -0.265625 2.15625zm26.460571 -7.59375l0 15.5l-2.640625 0l0 -15.5l2.640625 0zm-0.90625 7.125l0 2.171875q-0.796875 0.296875 -1.625 0.546875q-0.8125 0.234375 -1.734375 0.375q-0.90625 0.125 -1.96875 0.125q-1.828125 0 -3.171875 -0.640625q-1.34375 -0.640625 -2.078125 -1.921875q-0.734375 -1.296875 -0.734375 -3.28125l0 -4.515625l2.65625 0l0 4.515625q0 1.296875 0.375 2.09375q0.390625 0.796875 1.140625 1.1875q0.75 0.375 1.8125 0.375q1.03125 0 1.9375 -0.140625q0.921875 -0.140625 1.75 -0.359375q0.84375 -0.234375 1.640625 -0.53125zm15.687317 -0.40625l0 2.15625l-8.1875 0l0 -2.15625l8.1875 0zm-7.640625 -6.71875l0 15.5l-2.640625 0l0 -15.5l2.640625 0zm9.78125 0l0 15.5l-2.65625 0l0 -15.5l2.65625 0zm13.3967285 12.84375l0 -7.96875q0 -0.921875 -0.375 -1.59375q-0.359375 -0.6875 -1.09375 -1.046875q-0.71875 -0.375 -1.796875 -0.375q-1.0 0 -1.75 0.34375q-0.75 0.34375 -1.171875 0.90625q-0.421875 0.546875 -0.421875 1.1875l-2.65625 0q0 -0.828125 0.421875 -1.640625q0.4375 -0.8125 1.25 -1.484375q0.8125 -0.671875 1.9375 -1.0625q1.140625 -0.390625 2.546875 -0.390625q1.6875 0 2.984375 0.578125q1.296875 0.5625 2.03125 1.71875q0.75 1.15625 0.75 2.890625l0 7.21875q0 0.765625 0.125 1.640625q0.140625 0.875 0.40625 1.5l0 0.234375l-2.765625 0q-0.1875 -0.453125 -0.3125 -1.21875q-0.109375 -0.765625 -0.109375 -1.4375zm0.453125 -6.734375l0.03125 1.859375l-2.671875 0q-1.140625 0 -2.03125 0.1875q-0.875 0.171875 -1.484375 0.53125q-0.59375 0.359375 -0.921875 0.890625q-0.3125 0.53125 -0.3125 1.25q0 0.734375 0.328125 1.34375q0.34375 0.59375 1.0 0.953125q0.671875 0.34375 1.640625 0.34375q1.21875 0 2.140625 -0.515625q0.9375 -0.515625 1.484375 -1.25q0.5625 -0.75 0.59375 -1.453125l1.140625 1.265625q-0.109375 0.609375 -0.546875 1.34375q-0.4375 0.71875 -1.1875 1.390625q-0.734375 0.65625 -1.75 1.09375q-1.0 0.4375 -2.265625 0.4375q-1.5625 0 -2.75 -0.609375q-1.1875 -0.609375 -1.84375 -1.640625q-0.640625 -1.046875 -0.640625 -2.34375q0 -1.25 0.484375 -2.1875q0.484375 -0.953125 1.40625 -1.59375q0.921875 -0.640625 2.203125 -0.96875q1.296875 -0.328125 2.875 -0.328125l3.078125 0zm9.499756 2.0l2.859375 0l-4.484375 7.390625l-2.859375 0l4.484375 -7.390625zm2.21875 -8.109375l6.46875 0l0 15.5l-2.640625 0l0 -13.34375l-3.828125 0q-1.125 0 -1.84375 0.375q-0.71875 0.375 -1.046875 0.984375q-0.328125 0.59375 -0.328125 1.25q0 0.625 0.296875 1.203125q0.296875 0.578125 0.9375 0.953125q0.65625 0.375 1.671875 0.375l4.859375 0l0 2.171875l-4.859375 0q-1.328125 0 -2.359375 -0.359375q-1.03125 -0.359375 -1.75 -0.984375q-0.71875 -0.640625 -1.09375 -1.5q-0.375 -0.875 -0.375 -1.890625q0 -1.015625 0.390625 -1.875q0.40625 -0.859375 1.15625 -1.5q0.75 -0.65625 1.84375 -1.0q1.09375 -0.359375 2.5 -0.359375zm28.5271 6.71875l0 2.15625l-8.1875 0l0 -2.15625l8.1875 0zm-7.640625 -6.71875l0 15.5l-2.640625 0l0 -15.5l2.640625 0zm9.78125 0l0 15.5l-2.65625 0l0 -15.5l2.65625 0zm7.1311035 11.296875l7.140625 -11.296875l2.65625 0l0 15.5l-2.65625 0l0 -11.296875l-7.140625 11.296875l-2.640625 0l0 -15.5l2.640625 0l0 11.296875zm18.754822 -2.546875l-5.875 -8.75l3.1875 0l4.015625 6.421875l3.09375 0l-0.390625 2.328125l-4.03125 0zm1.4375 -0.265625l-4.484375 7.015625l-3.359375 0l6.171875 -8.9375l1.671875 1.921875zm4.34375 -8.484375l0 15.5l-2.640625 0l0 -15.5l2.640625 0zm9.03125 0l-5.859375 8.75l-4.046875 0l-0.40625 -2.328125l3.109375 0l4.0 -6.421875l3.203125 0zm-2.828125 15.5l-4.515625 -7.015625l1.703125 -1.921875l6.15625 8.9375l-3.34375 0zm16.296814 -8.78125l0 2.15625l-8.1875 0l0 -2.15625l8.1875 0zm-7.640625 -6.71875l0 15.5l-2.640625 0l0 -15.5l2.640625 0zm9.78125 0l0 15.5l-2.65625 0l0 -15.5l2.65625 0zm7.3967285 8.109375l2.859375 0l-4.484375 7.390625l-2.859375 0l4.484375 -7.390625zm2.21875 -8.109375l6.46875 0l0 15.5l-2.640625 0l0 -13.34375l-3.828125 0q-1.125 0 -1.84375 0.375q-0.71875 0.375 -1.046875 0.984375q-0.328125 0.59375 -0.328125 1.25q0 0.625 0.296875 1.203125q0.296875 0.578125 0.9375 0.953125q0.65625 0.375 1.671875 0.375l4.859375 0l0 2.171875l-4.859375 0q-1.328125 0 -2.359375 -0.359375q-1.03125 -0.359375 -1.75 -0.984375q-0.71875 -0.640625 -1.09375 -1.5q-0.375 -0.875 -0.375 -1.890625q0 -1.015625 0.390625 -1.875q0.40625 -0.859375 1.15625 -1.5q0.75 -0.65625 1.84375 -1.0q1.09375 -0.359375 2.5 -0.359375zm13.87738 8.109375l2.859375 0l-4.484375 7.390625l-2.859375 0l4.484375 -7.390625zm2.21875 -8.109375l6.46875 0l0 15.5l-2.640625 0l0 -13.34375l-3.828125 0q-1.125 0 -1.84375 0.375q-0.71875 0.375 -1.046875 0.984375q-0.328125 0.59375 -0.328125 1.25q0 0.625 0.296875 1.203125q0.296875 0.578125 0.9375 0.953125q0.65625 0.375 1.671875 0.375l4.859375 0l0 2.171875l-4.859375 0q-1.328125 0 -2.359375 -0.359375q-1.03125 -0.359375 -1.75 -0.984375q-0.71875 -0.640625 -1.09375 -1.5q-0.375 -0.875 -0.375 -1.890625q0 -1.015625 0.390625 -1.875q0.40625 -0.859375 1.15625 -1.5q0.75 -0.65625 1.84375 -1.0q1.09375 -0.359375 2.5 -0.359375zm28.0271 0l0 2.203125l-7.15625 0l0 13.296875l-2.65625 0l0 -15.5l9.8125 0zm4.9561157 2.984375l0 18.46875l-2.671875 0l0 -21.453125l2.4375 0l0.234375 2.984375zm10.4375 4.640625l0 0.296875q0 1.6875 -0.40625 3.140625q-0.390625 1.4375 -1.15625 2.5q-0.765625 1.046875 -1.890625 1.640625q-1.109375 0.578125 -2.5625 0.578125q-1.46875 0 -2.609375 -0.484375q-1.125 -0.484375 -1.921875 -1.40625q-0.78125 -0.9375 -1.25 -2.234375q-0.46875 -1.3125 -0.640625 -2.9375l0 -1.609375q0.171875 -1.71875 0.640625 -3.078125q0.484375 -1.359375 1.265625 -2.328125q0.78125 -0.96875 1.890625 -1.46875q1.125 -0.515625 2.578125 -0.515625q1.46875 0 2.59375 0.5625q1.140625 0.5625 1.90625 1.609375q0.78125 1.046875 1.171875 2.5q0.390625 1.453125 0.390625 3.234375zm-2.671875 0.296875l0 -0.296875q0 -1.15625 -0.25 -2.171875q-0.234375 -1.03125 -0.75 -1.8125q-0.5 -0.78125 -1.296875 -1.234375q-0.78125 -0.453125 -1.859375 -0.453125q-1.0 0 -1.75 0.34375q-0.734375 0.34375 -1.25 0.921875q-0.515625 0.578125 -0.84375 1.328125q-0.3125 0.734375 -0.46875 1.515625l0 3.703125q0.28125 1.015625 0.796875 1.890625q0.515625 0.875 1.375 1.421875q0.859375 0.53125 2.171875 0.53125q1.0625 0 1.84375 -0.453125q0.78125 -0.453125 1.28125 -1.234375q0.515625 -0.796875 0.75 -1.8125q0.25 -1.03125 0.25 -2.1875zm15.187195 4.921875l0 -7.96875q0 -0.921875 -0.375 -1.59375q-0.359375 -0.6875 -1.09375 -1.046875q-0.71875 -0.375 -1.796875 -0.375q-1.0 0 -1.75 0.34375q-0.75 0.34375 -1.171875 0.90625q-0.421875 0.546875 -0.421875 1.1875l-2.65625 0q0 -0.828125 0.421875 -1.640625q0.4375 -0.8125 1.25 -1.484375q0.8125 -0.671875 1.9375 -1.0625q1.140625 -0.390625 2.546875 -0.390625q1.6875 0 2.984375 0.578125q1.296875 0.5625 2.03125 1.71875q0.75 1.15625 0.75 2.890625l0 7.21875q0 0.765625 0.125 1.640625q0.140625 0.875 0.40625 1.5l0 0.234375l-2.765625 0q-0.1875 -0.453125 -0.3125 -1.21875q-0.109375 -0.765625 -0.109375 -1.4375zm0.453125 -6.734375l0.03125 1.859375l-2.671875 0q-1.140625 0 -2.03125 0.1875q-0.875 0.171875 -1.484375 0.53125q-0.59375 0.359375 -0.921875 0.890625q-0.3125 0.53125 -0.3125 1.25q0 0.734375 0.328125 1.34375q0.34375 0.59375 1.0 0.953125q0.671875 0.34375 1.640625 0.34375q1.21875 0 2.140625 -0.515625q0.9375 -0.515625 1.484375 -1.25q0.5625 -0.75 0.59375 -1.453125l1.140625 1.265625q-0.109375 0.609375 -0.546875 1.34375q-0.4375 0.71875 -1.1875 1.390625q-0.734375 0.65625 -1.75 1.09375q-1.0 0.4375 -2.265625 0.4375q-1.5625 0 -2.75 -0.609375q-1.1875 -0.609375 -1.84375 -1.640625q-0.640625 -1.046875 -0.640625 -2.34375q0 -1.25 0.484375 -2.1875q0.484375 -0.953125 1.40625 -1.59375q0.921875 -0.640625 2.203125 -0.96875q1.296875 -0.328125 2.875 -0.328125l3.078125 0zm16.874756 0.609375l0 2.15625l-8.1875 0l0 -2.15625l8.1875 0zm-7.640625 -6.71875l0 15.5l-2.640625 0l0 -15.5l2.640625 0zm9.78125 0l0 15.5l-2.65625 0l0 -15.5l2.65625 0zm6.4436646 5.328125l4.640625 0q1.875 0 3.15625 0.65625q1.296875 0.65625 1.96875 1.796875q0.671875 1.125 0.671875 2.578125q0 1.078125 -0.375 2.015625q-0.375 0.9375 -1.109375 1.640625q-0.734375 0.703125 -1.828125 1.09375q-1.078125 0.390625 -2.484375 0.390625l-6.578125 0l0 -15.5l2.640625 0l0 13.328125l3.9375 0q1.15625 0 1.84375 -0.40625q0.6875 -0.421875 0.984375 -1.078125q0.296875 -0.671875 0.296875 -1.390625q0 -0.703125 -0.296875 -1.375q-0.296875 -0.671875 -0.984375 -1.109375q-0.6875 -0.453125 -1.84375 -0.453125l-4.640625 0l0 -2.1875z" fill-rule="nonzero"/><path fill="#000000" fill-opacity="0.0" d="m540.72705 404.4462l-126.01578 -22.929138" fill-rule="evenodd"/><path stroke="#212121" stroke-width="1.0" stroke-linejoin="round" stroke-linecap="butt" d="m540.72705 404.4462l-126.01578 -22.929138" fill-rule="evenodd"/><path fill="#000000" fill-opacity="0.0" d="m286.73932 229.31323l0 0c6.9551086 -21.530045 30.046448 -33.343887 51.575897 -26.386993l175.26328 56.633575c10.338806 3.3408508 18.927368 10.652008 23.876282 20.325165c4.9489746 9.673157 5.852844 20.915924 2.5128784 31.255005l-2.498291 7.7336426l0 0c-6.955139 21.53003 -30.046448 33.343903 -51.575897 26.386993l-175.26328 -56.633575c-21.52948 -6.956909 -33.3443 -30.05014 -26.38919 -51.580185z" fill-rule="evenodd"/><path stroke="#212121" stroke-width="3.0" stroke-linejoin="round" stroke-linecap="butt" stroke-dasharray="12.0,9.0" d="m286.73932 229.31323l0 0c6.9551086 -21.530045 30.046448 -33.343887 51.575897 -26.386993l175.26328 56.633575c10.338806 3.3408508 18.927368 10.652008 23.876282 20.325165c4.9489746 9.673157 5.852844 20.915924 2.5128784 31.255005l-2.498291 7.7336426l0 0c-6.955139 21.53003 -30.046448 33.343903 -51.575897 26.386993l-175.26328 -56.633575c-21.52948 -6.956909 -33.3443 -30.05014 -26.38919 -51.580185z" fill-rule="evenodd"/><path fill="#000000" fill-opacity="0.0" d="m469.40683 40.755905l419.18112 0l0 54.92913l-419.18112 0z" fill-rule="evenodd"/><path fill="#212121" d="m494.0787 75.66591l0 2.25l-11.046875 0l0 -2.25l11.046875 0zm-10.484375 -18.593754l0 20.843754l-2.765625 0l0 -20.843754l2.765625 0zm9.015625 8.953129l0 2.25l-9.578125 0l0 -2.25l9.578125 0zm1.3125 -8.953129l0 2.25l-10.890625 0l0 -2.25l10.890625 0zm5.96579 5.34375l2.640625 0l-0.21875 5.812504q-0.09375 2.203125 -0.515625 3.8125q-0.40625 1.59375 -1.046875 2.71875q-0.640625 1.125 -1.4375 1.890625q-0.796875 0.75 -1.640625 1.265625l-1.3125 0l0.0625 -2.15625l0.546875 -0.015625q0.46875 -0.5625 0.90625 -1.15625q0.453125 -0.59375 0.828125 -1.421875q0.375 -0.828125 0.625 -2.015625q0.25 -1.203125 0.3125 -2.921875l0.25 -5.812504zm0.65625 0l9.328125 0l0 15.500004l-2.65625 0l0 -13.046875l-6.671875 0l0 -2.4531288zm-4.796875 13.328129l16.109375 0l0 6.734375l-2.640625 0l0 -4.5625l-10.8125 0l0 4.5625l-2.671875 0l0.015625 -6.734375zm21.918701 -2.03125l7.140625 -11.296879l2.65625 0l0 15.500004l-2.65625 0l0 -11.296875l-7.140625 11.296875l-2.640625 0l0 -15.500004l2.640625 0l0 11.296879zm24.567322 -4.578125l0 2.15625l-8.1875 0l0 -2.15625l8.1875 0zm-7.640625 -6.718754l0 15.500004l-2.640625 0l0 -15.500004l2.640625 0zm9.78125 0l0 15.500004l-2.65625 0l0 -15.500004l2.65625 0zm7.1311035 11.296879l7.140625 -11.296879l2.65625 0l0 15.500004l-2.65625 0l0 -11.296875l-7.140625 11.296875l-2.640625 0l0 -15.500004l2.640625 0l0 11.296879zm25.739197 -11.296879l0 15.500004l-2.640625 0l0 -15.500004l2.640625 0zm-0.90625 7.125004l0 2.171875q-0.796875 0.296875 -1.625 0.546875q-0.8125 0.234375 -1.734375 0.375q-0.90625 0.125 -1.96875 0.125q-1.828125 0 -3.171875 -0.640625q-1.34375 -0.640625 -2.078125 -1.921875q-0.734375 -1.296875 -0.734375 -3.28125l0 -4.515629l2.65625 0l0 4.515629q0 1.296875 0.375 2.09375q0.390625 0.796875 1.140625 1.1875q0.75 0.375 1.8125 0.375q1.03125 0 1.9375 -0.140625q0.921875 -0.140625 1.75 -0.359375q0.84375 -0.234375 1.640625 -0.53125zm15.687256 -0.40625l0 2.15625l-8.1875 0l0 -2.15625l8.1875 0zm-7.640625 -6.718754l0 15.500004l-2.640625 0l0 -15.500004l2.640625 0zm9.78125 0l0 15.500004l-2.65625 0l0 -15.500004l2.65625 0zm6.4436646 5.328129l4.640625 0q1.875 0 3.15625 0.65625q1.296875 0.65625 1.96875 1.796875q0.671875 1.125 0.671875 2.578125q0 1.078125 -0.375 2.015625q-0.375 0.9375 -1.109375 1.640625q-0.734375 0.703125 -1.828125 1.09375q-1.078125 0.390625 -2.484375 0.390625l-6.578125 0l0 -15.500004l2.640625 0l0 13.328129l3.9375 0q1.15625 0 1.84375 -0.40625q0.6875 -0.421875 0.984375 -1.078125q0.296875 -0.671875 0.296875 -1.390625q0 -0.703125 -0.296875 -1.375q-0.296875 -0.671875 -0.984375 -1.109375q-0.6875 -0.453125 -1.84375 -0.453125l-4.640625 0l0 -2.1875zm15.953125 -5.328129l0 15.500004l-2.65625 0l0 -15.500004l2.65625 0zm7.503723 11.296879l7.140625 -11.296879l2.65625 0l0 15.500004l-2.65625 0l0 -11.296875l-7.140625 11.296875l-2.640625 0l0 -15.500004l2.640625 0l0 11.296879zm5.703125 -16.906254l2.140625 0q0 1.109375 -0.515625 1.984375q-0.515625 0.859375 -1.484375 1.359375q-0.953125 0.484375 -2.265625 0.484375q-1.984375 0 -3.140625 -1.0625q-1.15625 -1.078125 -1.15625 -2.765625l2.15625 0q0 0.84375 0.484375 1.484375q0.484375 0.640625 1.65625 0.640625q1.140625 0 1.625 -0.640625q0.5 -0.640625 0.5 -1.484375zm21.060852 7.500004q-0.875 0 -1.671875 0.390625q-0.796875 0.390625 -1.3125 1.078125q-0.5 0.671875 -0.5 1.5625l-2.53125 0q0 -1.390625 0.859375 -2.5625q0.859375 -1.1875038 2.234375 -1.9062538q1.375 -0.734375 2.921875 -0.734375q1.625 0 2.875 0.625q1.265625 0.609375 2.125 1.6875038q0.875 1.0625 1.3125 2.46875q0.453125 1.390625 0.453125 2.953125l0 0.59375q0 1.5625 -0.453125 2.96875q-0.453125 1.390625 -1.328125 2.46875q-0.859375 1.078125 -2.109375 1.703125q-1.25 0.609375 -2.875 0.609375q-1.71875 0 -3.09375 -0.734375q-1.359375 -0.75 -2.140625 -2.015625q-0.78125 -1.265625 -0.78125 -2.859375l2.53125 0q0 0.953125 0.453125 1.734375q0.46875 0.78125 1.25 1.25q0.796875 0.453125 1.78125 0.453125q1.078125 0 1.859375 -0.484375q0.78125 -0.484375 1.28125 -1.28125q0.5 -0.8125 0.734375 -1.796875q0.25 -1.0 0.25 -2.015625l0 -0.59375q0 -1.015625 -0.25 -2.0q-0.234375 -1.0 -0.734375 -1.796875q-0.484375 -0.796875 -1.265625 -1.28125q-0.78125 -0.484375 -1.875 -0.484375zm5.40625 4.625l0 2.171875l-7.140625 0l0 -2.171875l7.140625 0zm15.09613 -6.515629l0 2.2031288l-7.484375 0l0 -2.2031288l7.484375 0zm2.328125 0l0 15.500004l-2.640625 0l0 -15.500004l2.640625 0zm-10.46875 0l2.671875 0l-0.40625 7.484379q-0.09375 1.734375 -0.328125 3.0625q-0.21875 1.3125 -0.59375 2.265625q-0.375 0.9375 -0.953125 1.53125q-0.5625 0.59375 -1.359375 0.875q-0.78125 0.28125 -1.8125 0.28125l-0.828125 0l0 -2.328125l0.578125 -0.046875q0.609375 -0.046875 1.046875 -0.28125q0.4375 -0.25 0.734375 -0.71875q0.3125 -0.484375 0.5 -1.25q0.203125 -0.765625 0.296875 -1.796875q0.109375 -1.046875 0.171875 -2.4375l0.28125 -6.640629zm21.174072 15.781254q-1.625 0 -2.9375 -0.546875q-1.3125 -0.546875 -2.25 -1.546875q-0.9375 -1.015625 -1.4375 -2.390625q-0.5 -1.375 -0.5 -3.0l0 -0.59375q0 -1.890625 0.5625 -3.375q0.5625 -1.484375 1.515625 -2.515625q0.96875 -1.0312538 2.171875 -1.5625038q1.21875 -0.53125 2.53125 -0.53125q1.65625 0 2.859375 0.578125q1.21875 0.5625 1.984375 1.5937538q0.78125 1.015625 1.15625 2.40625q0.375 1.375 0.375 3.015625l0 1.1875l-11.578125 0l0 -2.171875l8.921875 0l0 -0.1875q-0.0625 -1.03125 -0.421875 -2.0q-0.359375 -0.984375 -1.15625 -1.609375q-0.78125 -0.640625 -2.140625 -0.640625q-0.90625 0 -1.671875 0.390625q-0.75 0.375 -1.296875 1.125q-0.546875 0.734375 -0.84375 1.8125q-0.296875 1.078125 -0.296875 2.484375l0 0.59375q0 1.109375 0.296875 2.078125q0.3125 0.953125 0.90625 1.6875q0.59375 0.734375 1.4375 1.15625q0.859375 0.40625 1.953125 0.40625q1.40625 0 2.375 -0.5625q0.96875 -0.578125 1.703125 -1.546875l1.609375 1.28125q-0.5 0.75 -1.28125 1.4375q-0.765625 0.6875 -1.890625 1.125q-1.125 0.421875 -2.65625 0.421875zm18.02069 -3.796875l5.28125 -11.984379l2.546875 0l-6.90625 15.500004l-1.828125 0l-6.875 -15.500004l2.546875 0l5.234375 11.984379zm-6.015625 -11.984379l0 15.500004l-2.640625 0l0 -15.500004l2.640625 0zm11.953125 15.500004l0 -15.500004l2.65625 0l0 15.500004l-2.65625 0zm13.3463745 0.28125q-1.625 0 -2.9375 -0.546875q-1.3125 -0.546875 -2.25 -1.546875q-0.9375 -1.015625 -1.4375 -2.390625q-0.5 -1.375 -0.5 -3.0l0 -0.59375q0 -1.890625 0.5625 -3.375q0.5625 -1.484375 1.515625 -2.515625q0.96875 -1.0312538 2.171875 -1.5625038q1.21875 -0.53125 2.53125 -0.53125q1.65625 0 2.859375 0.578125q1.21875 0.5625 1.984375 1.5937538q0.78125 1.015625 1.15625 2.40625q0.375 1.375 0.375 3.015625l0 1.1875l-11.578125 0l0 -2.171875l8.921875 0l0 -0.1875q-0.0625 -1.03125 -0.421875 -2.0q-0.359375 -0.984375 -1.15625 -1.609375q-0.78125 -0.640625 -2.140625 -0.640625q-0.90625 0 -1.671875 0.390625q-0.75 0.375 -1.296875 1.125q-0.546875 0.734375 -0.84375 1.8125q-0.296875 1.078125 -0.296875 2.484375l0 0.59375q0 1.109375 0.296875 2.078125q0.3125 0.953125 0.90625 1.6875q0.59375 0.734375 1.4375 1.15625q0.859375 0.40625 1.953125 0.40625q1.40625 0 2.375 -0.5625q0.96875 -0.578125 1.703125 -1.546875l1.609375 1.28125q-0.5 0.75 -1.28125 1.4375q-0.765625 0.6875 -1.890625 1.125q-1.125 0.421875 -2.65625 0.421875zm19.630066 -9.0625l0 2.15625l-8.1875 0l0 -2.15625l8.1875 0zm-7.640625 -6.718754l0 15.500004l-2.640625 0l0 -15.500004l2.640625 0zm9.78125 0l0 15.500004l-2.65625 0l0 -15.500004l2.65625 0zm10.5686035 0l0 15.500004l-2.65625 0l0 -15.500004l2.65625 0zm5.203125 0l0 2.1562538l-12.953125 0l0 -2.1562538l12.953125 0z" fill-rule="nonzero"/><path fill="#000000" fill-opacity="0.0" d="m469.39896 68.2336l-144.59842 3.464569" fill-rule="evenodd"/><path stroke="#212121" stroke-width="1.0" stroke-linejoin="round" stroke-linecap="butt" d="m469.39896 68.2336l-144.59842 3.464569" fill-rule="evenodd"/><path fill="#000000" fill-opacity="0.0" d="m502.03937 451.03412l280.9134 0l0 54.92914l-280.9134 0z" fill-rule="evenodd"/><path fill="#212121" d="m527.0706 476.3035l0 2.25l-11.28125 0l0 -2.25l11.28125 0zm-10.84375 -8.953125l0 20.84375l-2.765625 0l0 -20.84375l2.765625 0zm13.25 0l0 20.84375l-2.75 0l0 -20.84375l2.75 0zm8.859558 19.234375l4.3125 -13.890625l2.828125 0l-6.21875 17.890625q-0.203125 0.578125 -0.5625 1.234375q-0.34375 0.671875 -0.890625 1.265625q-0.546875 0.609375 -1.3125 0.984375q-0.765625 0.390625 -1.828125 0.390625q-0.3125 0 -0.796875 -0.09375q-0.484375 -0.078125 -0.6875 -0.140625l-0.015625 -2.15625q0.109375 0.015625 0.359375 0.03125q0.25 0.03125 0.359375 0.03125q0.90625 0 1.53125 -0.234375q0.625 -0.234375 1.0625 -0.796875q0.4375 -0.546875 0.75 -1.5l1.109375 -3.015625zm-3.171875 -13.890625l4.03125 12.03125l0.6875 2.796875l-1.90625 0.96875l-5.703125 -15.796875l2.890625 0zm22.46112 0l0 2.203125l-7.484375 0l0 -2.203125l7.484375 0zm2.328125 0l0 15.5l-2.640625 0l0 -15.5l2.640625 0zm-10.46875 0l2.671875 0l-0.40625 7.484375q-0.09375 1.734375 -0.328125 3.0625q-0.21875 1.3125 -0.59375 2.265625q-0.375 0.9375 -0.953125 1.53125q-0.5625 0.59375 -1.359375 0.875q-0.78125 0.28125 -1.8125 0.28125l-0.828125 0l0 -2.328125l0.578125 -0.046875q0.609375 -0.046875 1.046875 -0.28125q0.4375 -0.25 0.734375 -0.71875q0.3125 -0.484375 0.5 -1.25q0.203125 -0.765625 0.296875 -1.796875q0.109375 -1.046875 0.171875 -2.4375l0.28125 -6.640625zm21.174072 15.78125q-1.625 0 -2.9375 -0.546875q-1.3125 -0.546875 -2.25 -1.546875q-0.9375 -1.015625 -1.4375 -2.390625q-0.5 -1.375 -0.5 -3.0l0 -0.59375q0 -1.890625 0.5625 -3.375q0.5625 -1.484375 1.515625 -2.515625q0.96875 -1.03125 2.171875 -1.5625q1.21875 -0.53125 2.53125 -0.53125q1.65625 0 2.859375 0.578125q1.21875 0.5625 1.984375 1.59375q0.78125 1.015625 1.15625 2.40625q0.375 1.375 0.375 3.015625l0 1.1875l-11.578125 0l0 -2.171875l8.921875 0l0 -0.1875q-0.0625 -1.03125 -0.421875 -2.0q-0.359375 -0.984375 -1.15625 -1.609375q-0.78125 -0.640625 -2.140625 -0.640625q-0.90625 0 -1.671875 0.390625q-0.75 0.375 -1.296875 1.125q-0.546875 0.734375 -0.84375 1.8125q-0.296875 1.078125 -0.296875 2.484375l0 0.59375q0 1.109375 0.296875 2.078125q0.3125 0.953125 0.90625 1.6875q0.59375 0.734375 1.4375 1.15625q0.859375 0.40625 1.953125 0.40625q1.40625 0 2.375 -0.5625q0.96875 -0.578125 1.703125 -1.546875l1.609375 1.28125q-0.5 0.75 -1.28125 1.4375q-0.765625 0.6875 -1.890625 1.125q-1.125 0.421875 -2.65625 0.421875zm16.39569 -7.09375l-5.09375 0l-0.015625 -2.125l4.140625 0q1.234375 0 2.0625 -0.234375q0.828125 -0.25 1.234375 -0.734375q0.421875 -0.484375 0.421875 -1.203125q0 -0.5625 -0.234375 -0.984375q-0.234375 -0.421875 -0.71875 -0.703125q-0.46875 -0.28125 -1.171875 -0.40625q-0.6875 -0.140625 -1.609375 -0.140625l-3.40625 0l0 13.34375l-2.640625 0l0 -15.5l6.046875 0q1.46875 0 2.640625 0.265625q1.1875 0.25 2.015625 0.78125q0.84375 0.515625 1.28125 1.328125q0.453125 0.796875 0.453125 1.890625q0 0.6875 -0.28125 1.328125q-0.28125 0.625 -0.84375 1.109375q-0.5625 0.484375 -1.375 0.796875q-0.8125 0.3125 -1.875 0.390625l-1.03125 0.796875zm0 6.8125l-6.046875 0l1.3125 -2.140625l4.734375 0q1.09375 0 1.828125 -0.28125q0.734375 -0.28125 1.09375 -0.796875q0.375 -0.53125 0.375 -1.265625q0 -0.734375 -0.375 -1.25q-0.359375 -0.53125 -1.09375 -0.796875q-0.734375 -0.28125 -1.828125 -0.28125l-4.03125 0l0.03125 -2.125l5.03125 0l0.953125 0.796875q1.28125 0.109375 2.15625 0.640625q0.890625 0.53125 1.34375 1.34375q0.46875 0.796875 0.46875 1.75q0 1.078125 -0.40625 1.921875q-0.40625 0.828125 -1.1875 1.375q-0.765625 0.546875 -1.875 0.828125q-1.09375 0.28125 -2.484375 0.28125zm8.78479 -7.578125l0 -0.328125q0 -1.671875 0.484375 -3.109375q0.5 -1.4375 1.40625 -2.5q0.921875 -1.078125 2.21875 -1.671875q1.3125 -0.59375 2.921875 -0.59375q1.640625 0 2.953125 0.59375q1.3125 0.59375 2.234375 1.671875q0.921875 1.0625 1.40625 2.5q0.484375 1.4375 0.484375 3.109375l0 0.328125q0 1.671875 -0.484375 3.109375q-0.484375 1.4375 -1.40625 2.5q-0.921875 1.0625 -2.21875 1.65625q-1.296875 0.59375 -2.9375 0.59375q-1.625 0 -2.9375 -0.59375q-1.296875 -0.59375 -2.21875 -1.65625q-0.921875 -1.0625 -1.421875 -2.5q-0.484375 -1.4375 -0.484375 -3.109375zm2.65625 -0.328125l0 0.328125q0 1.15625 0.265625 2.1875q0.28125 1.015625 0.828125 1.8125q0.546875 0.78125 1.375 1.234375q0.84375 0.453125 1.9375 0.453125q1.09375 0 1.90625 -0.453125q0.828125 -0.453125 1.375 -1.234375q0.546875 -0.796875 0.828125 -1.8125q0.28125 -1.03125 0.28125 -2.1875l0 -0.328125q0 -1.140625 -0.28125 -2.15625q-0.28125 -1.03125 -0.84375 -1.828125q-0.546875 -0.796875 -1.375 -1.25q-0.8125 -0.46875 -1.921875 -0.46875q-1.078125 0 -1.90625 0.46875q-0.828125 0.453125 -1.375 1.25q-0.546875 0.796875 -0.828125 1.828125q-0.265625 1.015625 -0.265625 2.15625zm17.648071 3.703125l7.140625 -11.296875l2.65625 0l0 15.5l-2.65625 0l0 -11.296875l-7.140625 11.296875l-2.640625 0l0 -15.5l2.640625 0l0 11.296875zm5.703125 -16.90625l2.140625 0q0 1.109375 -0.515625 1.984375q-0.515625 0.859375 -1.484375 1.359375q-0.953125 0.484375 -2.265625 0.484375q-1.984375 0 -3.140625 -1.0625q-1.15625 -1.078125 -1.15625 -2.765625l2.15625 0q0 0.84375 0.484375 1.484375q0.484375 0.640625 1.65625 0.640625q1.140625 0 1.625 -0.640625q0.5 -0.640625 0.5 -1.484375zm21.060791 7.5q-0.875 0 -1.671875 0.390625q-0.796875 0.390625 -1.3125 1.078125q-0.5 0.671875 -0.5 1.5625l-2.53125 0q0 -1.390625 0.859375 -2.5625q0.859375 -1.1875 2.234375 -1.90625q1.375 -0.734375 2.921875 -0.734375q1.625 0 2.875 0.625q1.265625 0.609375 2.125 1.6875q0.875 1.0625 1.3125 2.46875q0.453125 1.390625 0.453125 2.953125l0 0.59375q0 1.5625 -0.453125 2.96875q-0.453125 1.390625 -1.328125 2.46875q-0.859375 1.078125 -2.109375 1.703125q-1.25 0.609375 -2.875 0.609375q-1.71875 0 -3.09375 -0.734375q-1.359375 -0.75 -2.140625 -2.015625q-0.78125 -1.265625 -0.78125 -2.859375l2.53125 0q0 0.953125 0.453125 1.734375q0.46875 0.78125 1.25 1.25q0.796875 0.453125 1.78125 0.453125q1.078125 0 1.859375 -0.484375q0.78125 -0.484375 1.28125 -1.28125q0.5 -0.8125 0.734375 -1.796875q0.25 -1.0 0.25 -2.015625l0 -0.59375q0 -1.015625 -0.25 -2.0q-0.234375 -1.0 -0.734375 -1.796875q-0.484375 -0.796875 -1.265625 -1.28125q-0.78125 -0.484375 -1.875 -0.484375zm5.40625 4.625l0 2.171875l-7.140625 0l0 -2.171875l7.140625 0zm15.09613 -6.515625l0 2.203125l-7.484375 0l0 -2.203125l7.484375 0zm2.328125 0l0 15.5l-2.640625 0l0 -15.5l2.640625 0zm-10.46875 0l2.671875 0l-0.40625 7.484375q-0.09375 1.734375 -0.328125 3.0625q-0.21875 1.3125 -0.59375 2.265625q-0.375 0.9375 -0.953125 1.53125q-0.5625 0.59375 -1.359375 0.875q-0.78125 0.28125 -1.8125 0.28125l-0.828125 0l0 -2.328125l0.578125 -0.046875q0.609375 -0.046875 1.046875 -0.28125q0.4375 -0.25 0.734375 -0.71875q0.3125 -0.484375 0.5 -1.25q0.203125 -0.765625 0.296875 -1.796875q0.109375 -1.046875 0.171875 -2.4375l0.28125 -6.640625zm21.174072 15.78125q-1.625 0 -2.9375 -0.546875q-1.3125 -0.546875 -2.25 -1.546875q-0.9375 -1.015625 -1.4375 -2.390625q-0.5 -1.375 -0.5 -3.0l0 -0.59375q0 -1.890625 0.5625 -3.375q0.5625 -1.484375 1.515625 -2.515625q0.96875 -1.03125 2.171875 -1.5625q1.21875 -0.53125 2.53125 -0.53125q1.65625 0 2.859375 0.578125q1.21875 0.5625 1.984375 1.59375q0.78125 1.015625 1.15625 2.40625q0.375 1.375 0.375 3.015625l0 1.1875l-11.578125 0l0 -2.171875l8.921875 0l0 -0.1875q-0.0625 -1.03125 -0.421875 -2.0q-0.359375 -0.984375 -1.15625 -1.609375q-0.78125 -0.640625 -2.140625 -0.640625q-0.90625 0 -1.671875 0.390625q-0.75 0.375 -1.296875 1.125q-0.546875 0.734375 -0.84375 1.8125q-0.296875 1.078125 -0.296875 2.484375l0 0.59375q0 1.109375 0.296875 2.078125q0.3125 0.953125 0.90625 1.6875q0.59375 0.734375 1.4375 1.15625q0.859375 0.40625 1.953125 0.40625q1.40625 0 2.375 -0.5625q0.96875 -0.578125 1.703125 -1.546875l1.609375 1.28125q-0.5 0.75 -1.28125 1.4375q-0.765625 0.6875 -1.890625 1.125q-1.125 0.421875 -2.65625 0.421875zm18.02069 -3.796875l5.28125 -11.984375l2.546875 0l-6.90625 15.5l-1.828125 0l-6.875 -15.5l2.546875 0l5.234375 11.984375zm-6.015625 -11.984375l0 15.5l-2.640625 0l0 -15.5l2.640625 0zm11.953125 15.5l0 -15.5l2.65625 0l0 15.5l-2.65625 0zm13.346436 0.28125q-1.625 0 -2.9375 -0.546875q-1.3125 -0.546875 -2.25 -1.546875q-0.9375 -1.015625 -1.4375 -2.390625q-0.5 -1.375 -0.5 -3.0l0 -0.59375q0 -1.890625 0.5625 -3.375q0.5625 -1.484375 1.515625 -2.515625q0.96875 -1.03125 2.171875 -1.5625q1.21875 -0.53125 2.53125 -0.53125q1.65625 0 2.859375 0.578125q1.21875 0.5625 1.984375 1.59375q0.78125 1.015625 1.15625 2.40625q0.375 1.375 0.375 3.015625l0 1.1875l-11.578125 0l0 -2.171875l8.921875 0l0 -0.1875q-0.0625 -1.03125 -0.421875 -2.0q-0.359375 -0.984375 -1.15625 -1.609375q-0.78125 -0.640625 -2.140625 -0.640625q-0.90625 0 -1.671875 0.390625q-0.75 0.375 -1.296875 1.125q-0.546875 0.734375 -0.84375 1.8125q-0.296875 1.078125 -0.296875 2.484375l0 0.59375q0 1.109375 0.296875 2.078125q0.3125 0.953125 0.90625 1.6875q0.59375 0.734375 1.4375 1.15625q0.859375 0.40625 1.953125 0.40625q1.40625 0 2.375 -0.5625q0.96875 -0.578125 1.703125 -1.546875l1.609375 1.28125q-0.5 0.75 -1.28125 1.4375q-0.765625 0.6875 -1.890625 1.125q-1.125 0.421875 -2.65625 0.421875zm19.630005 -9.0625l0 2.15625l-8.1875 0l0 -2.15625l8.1875 0zm-7.640625 -6.71875l0 15.5l-2.640625 0l0 -15.5l2.640625 0zm9.78125 0l0 15.5l-2.65625 0l0 -15.5l2.65625 0zm10.568665 0l0 15.5l-2.65625 0l0 -15.5l2.65625 0zm5.203125 0l0 2.15625l-12.953125 0l0 -2.15625l12.953125 0z" fill-rule="nonzero"/><path fill="#000000" fill-opacity="0.0" d="m502.03937 478.4987l-150.04724 -17.417328" fill-rule="evenodd"/><path stroke="#212121" stroke-width="1.0" stroke-linejoin="round" stroke-linecap="butt" d="m502.03937 478.4987l-150.04724 -17.417328" fill-rule="evenodd"/></g></svg>