<svg version="1.1" viewBox="0.0 0.0 960.0 540.0" fill="none" stroke="none" stroke-linecap="square" stroke-miterlimit="10" xmlns:xlink="http://www.w3.org/1999/xlink" xmlns="http://www.w3.org/2000/svg"><clipPath id="g362c5492b65_0_42.0"><path d="m0 0l960.0 0l0 540.0l-960.0 0l0 -540.0z" clip-rule="nonzero"/></clipPath><g clip-path="url(#g362c5492b65_0_42.0)"><path fill="#ffffff" d="m0 0l960.0 0l0 540.0l-960.0 0z" fill-rule="evenodd"/><path fill="#000000" fill-opacity="0.0" d="m889.4969 489.57657l57.606323 0l0 41.322845l-57.606323 0z" fill-rule="evenodd"/><path fill="#eeeeee" d="m297.61942 71.698166l0 0c0 -6.923134 6.084717 -12.535435 13.590546 -12.535435l0 0c7.5058594 0 13.590576 5.612301 13.590576 12.535435l0 0c0 6.923126 -6.084717 12.535431 -13.590576 12.535431l0 0c-7.505829 0 -13.590546 -5.6123047 -13.590546 -12.535431z" fill-rule="evenodd"/><path stroke="#212121" stroke-width="4.0" stroke-linejoin="round" stroke-linecap="butt" d="m297.61942 71.698166l0 0c0 -6.923134 6.084717 -12.535435 13.590546 -12.535435l0 0c7.5058594 0 13.590576 5.612301 13.590576 12.535435l0 0c0 6.923126 -6.084717 12.535431 -13.590576 12.535431l0 0c-7.505829 0 -13.590546 -5.6123047 -13.590546 -12.535431z" fill-rule="evenodd"/><path fill="#eeeeee" d="m200.4252 159.83464l0 0c0 -6.923126 6.0846863 -12.535431 13.590546 -12.535431l0 0c7.5058594 0 13.590546 5.6123047 13.590546 12.535431l0 0c0 6.923126 -6.0846863 12.535431 -13.590546 12.535431l0 0c-7.5058594 0 -13.590546 -5.6123047 -13.590546 -12.535431z" fill-rule="evenodd"/><path stroke="#212121" stroke-width="1.0" stroke-linejoin="round" stroke-linecap="butt" d="m200.4252 159.83464l0 0c0 -6.923126 6.0846863 -12.535431 13.590546 -12.535431l0 0c7.5058594 0 13.590546 5.6123047 13.590546 12.535431l0 0c0 6.923126 -6.0846863 12.535431 -13.590546 12.535431l0 0c-7.5058594 0 -13.590546 -5.6123047 -13.590546 -12.535431z" fill-rule="evenodd"/><path fill="#999999" d="m431.03674 175.53543l0 0c0 -6.923126 6.0846863 -12.535431 13.590546 -12.535431l0 0c7.5058594 0 13.590546 5.6123047 13.590546 12.535431l0 0c0 6.923126 -6.0846863 12.535431 -13.590546 12.535431l0 0c-7.5058594 0 -13.590546 -5.6123047 -13.590546 -12.535431z" fill-rule="evenodd"/><path stroke="#212121" stroke-width="4.0" stroke-linejoin="round" stroke-linecap="butt" d="m431.03674 175.53543l0 0c0 -6.923126 6.0846863 -12.535431 13.590546 -12.535431l0 0c7.5058594 0 13.590546 5.6123047 13.590546 12.535431l0 0c0 6.923126 -6.0846863 12.535431 -13.590546 12.535431l0 0c-7.5058594 0 -13.590546 -5.6123047 -13.590546 -12.535431z" fill-rule="evenodd"/><path fill="#3178c6" d="m313.62204 249.94357l0 0c0 -6.923126 6.084717 -12.535431 13.590546 -12.535431l0 0c7.5058594 0 13.590576 5.6123047 13.590576 12.535431l0 0c0 6.923126 -6.084717 12.535431 -13.590576 12.535431l0 0c-7.505829 0 -13.590546 -5.6123047 -13.590546 -12.535431z" fill-rule="evenodd"/><path stroke="#0000ff" stroke-width="4.0" stroke-linejoin="round" stroke-linecap="butt" d="m313.62204 249.94357l0 0c0 -6.923126 6.084717 -12.535431 13.590546 -12.535431l0 0c7.5058594 0 13.590576 5.6123047 13.590576 12.535431l0 0c0 6.923126 -6.084717 12.535431 -13.590576 12.535431l0 0c-7.505829 0 -13.590546 -5.6123047 -13.590546 -12.535431z" fill-rule="evenodd"/><path fill="#3178c6" d="m488.43832 299.90027l0 0c0 -6.923126 6.0846863 -12.535431 13.590546 -12.535431l0 0c7.5058594 0 13.590576 5.6123047 13.590576 12.535431l0 0c0 6.923126 -6.084717 12.535431 -13.590576 12.535431l0 0c-7.5058594 0 -13.590546 -5.6123047 -13.590546 -12.535431z" fill-rule="evenodd"/><path stroke="#0000ff" stroke-width="4.0" stroke-linejoin="round" stroke-linecap="butt" d="m488.43832 299.90027l0 0c0 -6.923126 6.0846863 -12.535431 13.590546 -12.535431l0 0c7.5058594 0 13.590576 5.6123047 13.590576 12.535431l0 0c0 6.923126 -6.084717 12.535431 -13.590576 12.535431l0 0c-7.5058594 0 -13.590546 -5.6123047 -13.590546 -12.535431z" fill-rule="evenodd"/><path fill="#eeeeee" d="m135.83989 280.88452l0 0c0 -6.923126 6.0847015 -12.535431 13.590561 -12.535431l0 0c7.505844 0 13.590546 5.6123047 13.590546 12.535431l0 0c0 6.923126 -6.0847015 12.535431 -13.590546 12.535431l0 0c-7.5058594 0 -13.590561 -5.6123047 -13.590561 -12.535431z" fill-rule="evenodd"/><path stroke="#212121" stroke-width="1.0" stroke-linejoin="round" stroke-linecap="butt" d="m135.83989 280.88452l0 0c0 -6.923126 6.0847015 -12.535431 13.590561 -12.535431l0 0c7.505844 0 13.590546 5.6123047 13.590546 12.535431l0 0c0 6.923126 -6.0847015 12.535431 -13.590546 12.535431l0 0c-7.5058594 0 -13.590561 -5.6123047 -13.590561 -12.535431z" fill-rule="evenodd"/><path fill="#eeeeee" d="m324.80054 461.08923l0 0c0 -6.923126 6.0846863 -12.535431 13.590546 -12.535431l0 0c7.5058594 0 13.590546 5.6123047 13.590546 12.535431l0 0c0 6.923126 -6.0846863 12.535431 -13.590546 12.535431l0 0c-7.5058594 0 -13.590546 -5.6123047 -13.590546 -12.535431z" fill-rule="evenodd"/><path stroke="#212121" stroke-width="4.0" stroke-linejoin="round" stroke-linecap="butt" d="m324.80054 461.08923l0 0c0 -6.923126 6.0846863 -12.535431 13.590546 -12.535431l0 0c7.5058594 0 13.590546 5.6123047 13.590546 12.535431l0 0c0 6.923126 -6.0846863 12.535431 -13.590546 12.535431l0 0c-7.5058594 0 -13.590546 -5.6123047 -13.590546 -12.535431z" fill-rule="evenodd"/><path fill="#eeeeee" d="m223.07611 362.70865l0 0c0 -6.923126 6.0847015 -12.535431 13.590561 -12.535431l0 0c7.505844 0 13.590546 5.6123047 13.590546 12.535431l0 0c0 6.923126 -6.0847015 12.535431 -13.590546 12.535431l0 0c-7.5058594 0 -13.590561 -5.6123047 -13.590561 -12.535431z" fill-rule="evenodd"/><path stroke="#212121" stroke-width="1.0" stroke-linejoin="round" stroke-linecap="butt" d="m223.07611 362.70865l0 0c0 -6.923126 6.0847015 -12.535431 13.590561 -12.535431l0 0c7.505844 0 13.590546 5.6123047 13.590546 12.535431l0 0c0 6.923126 -6.0847015 12.535431 -13.590546 12.535431l0 0c-7.5058594 0 -13.590561 -5.6123047 -13.590561 -12.535431z" fill-rule="evenodd"/><path fill="#999999" d="m391.5092 372.6509l0 0c0 -6.923126 6.0846863 -12.535431 13.590546 -12.535431l0 0c7.5058594 0 13.590546 5.6123047 13.590546 12.535431l0 0c0 6.923126 -6.0846863 12.535431 -13.590546 12.535431l0 0c-7.5058594 0 -13.590546 -5.6123047 -13.590546 -12.535431z" fill-rule="evenodd"/><path stroke="#212121" stroke-width="4.0" stroke-linejoin="round" stroke-linecap="butt" d="m391.5092 372.6509l0 0c0 -6.923126 6.0846863 -12.535431 13.590546 -12.535431l0 0c7.5058594 0 13.590546 5.6123047 13.590546 12.535431l0 0c0 6.923126 -6.0846863 12.535431 -13.590546 12.535431l0 0c-7.5058594 0 -13.590546 -5.6123047 -13.590546 -12.535431z" fill-rule="evenodd"/><path fill="#000000" fill-opacity="0.0" d="m328.7811 452.22534l-82.519684 -80.66141" fill-rule="evenodd"/><path stroke="#212121" stroke-width="1.0" stroke-linejoin="round" stroke-linecap="butt" d="m328.7811 452.22534l-78.22899 -76.46735" fill-rule="evenodd"/><path fill="#212121" stroke="#212121" stroke-width="1.0" stroke-linecap="butt" d="m251.70668 374.5768l-4.3998413 -1.9909973l2.090683 4.353363z" fill-rule="evenodd"/><path fill="#000000" fill-opacity="0.0" d="m348.00104 452.22534l47.496063 -70.70865" fill-rule="evenodd"/><path stroke="#212121" stroke-width="1.0" stroke-linejoin="round" stroke-linecap="butt" d="m348.00107 452.22534l44.15045 -65.72797" fill-rule="evenodd"/><path fill="#212121" stroke="#212121" stroke-width="1.0" stroke-linecap="butt" d="m393.52267 387.41837l1.1593018 -4.688141l-3.9015503 2.8461304z" fill-rule="evenodd"/><path fill="#000000" fill-opacity="0.0" d="m227.0567 353.84476l-68.03151 -64.09448" fill-rule="evenodd"/><path stroke="#212121" stroke-width="1.0" stroke-linejoin="round" stroke-linecap="butt" d="m227.0567 353.8448l-63.664368 -59.980103" fill-rule="evenodd"/><path fill="#212121" stroke="#212121" stroke-width="1.0" stroke-linecap="butt" d="m164.52496 292.66248l-4.4357147 -1.909729l2.1704254 4.314148z" fill-rule="evenodd"/><path fill="#000000" fill-opacity="0.0" d="m414.70972 363.78702l77.700775 -55.02362" fill-rule="evenodd"/><path stroke="#212121" stroke-width="1.0" stroke-linejoin="round" stroke-linecap="butt" d="m414.70972 363.78702l72.80423 -51.55612" fill-rule="evenodd"/><path fill="#212121" stroke="#212121" stroke-width="1.0" stroke-linecap="butt" d="m488.4685 313.5789l2.7489624 -3.9706116l-4.658081 1.2746582z" fill-rule="evenodd"/><path fill="#000000" fill-opacity="0.0" d="m395.48978 363.78702l-58.677185 -104.97638" fill-rule="evenodd"/><path stroke="#212121" stroke-width="1.0" stroke-linejoin="round" stroke-linecap="butt" d="m395.48975 363.78702l-55.749695 -99.73898" fill-rule="evenodd"/><path fill="#212121" stroke="#212121" stroke-width="1.0" stroke-linecap="butt" d="m341.18185 263.24213l-3.6559753 -3.1553955l0.7723999 4.7671814z" fill-rule="evenodd"/><path fill="#000000" fill-opacity="0.0" d="m246.27664 353.84476l71.33859 -95.02362" fill-rule="evenodd"/><path stroke="#212121" stroke-width="1.0" stroke-linejoin="round" stroke-linecap="butt" d="m246.27664 353.8448l67.7363 -90.22534" fill-rule="evenodd"/><path fill="#212121" stroke="#212121" stroke-width="1.0" stroke-linecap="butt" d="m315.33383 264.6111l1.4036865 -4.6208496l-4.0455017 2.6375122z" fill-rule="evenodd"/><path fill="#000000" fill-opacity="0.0" d="m236.66142 350.16534l-22.645676 -177.79527" fill-rule="evenodd"/><path stroke="#212121" stroke-width="1.0" stroke-linejoin="round" stroke-linecap="butt" d="m236.66142 350.16534l-21.887573 -171.84335" fill-rule="evenodd"/><path fill="#212121" stroke="#212121" stroke-width="1.0" stroke-linecap="butt" d="m216.41234 178.1133l-2.2118835 -4.29303l-1.0651093 4.7104187z" fill-rule="evenodd"/><path fill="#000000" fill-opacity="0.0" d="m149.43045 268.3491l54.960632 -99.65355" fill-rule="evenodd"/><path stroke="#212121" stroke-width="1.0" stroke-linejoin="round" stroke-linecap="butt" d="m149.43045 268.3491l52.06299 -94.39964" fill-rule="evenodd"/><path fill="#212121" stroke="#212121" stroke-width="1.0" stroke-linecap="butt" d="m202.93979 174.74715l0.74528503 -4.7714844l-3.63797 3.176117z" fill-rule="evenodd"/><path fill="#000000" fill-opacity="0.0" d="m223.62572 150.97075l77.98427 -70.39369" fill-rule="evenodd"/><path stroke="#212121" stroke-width="1.0" stroke-linejoin="round" stroke-linecap="butt" d="m223.62572 150.97076l73.53038 -66.37337" fill-rule="evenodd"/><path fill="#212121" stroke="#212121" stroke-width="1.0" stroke-linecap="butt" d="m298.26288 85.823494l2.2619019 -4.266884l-4.4754333 1.8146896z" fill-rule="evenodd"/><path fill="#000000" fill-opacity="0.0" d="m435.01733 166.67154l-114.20474 -86.11023" fill-rule="evenodd"/><path stroke="#212121" stroke-width="1.0" stroke-linejoin="round" stroke-linecap="butt" d="m435.0173 166.67154l-109.41391 -82.497986" fill-rule="evenodd"/><path fill="#212121" stroke="#212121" stroke-width="1.0" stroke-linecap="butt" d="m326.5978 82.854706l-4.61792 -1.4132767l2.6290894 4.0509796z" fill-rule="evenodd"/><path fill="#000000" fill-opacity="0.0" d="m336.82257 241.07968l98.20471 -56.692917" fill-rule="evenodd"/><path stroke="#212121" stroke-width="1.0" stroke-linejoin="round" stroke-linecap="butt" d="m336.82257 241.07968l93.00845 -53.69313" fill-rule="evenodd"/><path fill="#212121" stroke="#212121" stroke-width="1.0" stroke-linecap="butt" d="m430.65683 188.81703l3.1044006 -3.6993713l-4.756012 0.8384094z" fill-rule="evenodd"/><path fill="#000000" fill-opacity="0.0" d="m327.2126 237.40814l-16.0 -153.16536" fill-rule="evenodd"/><path stroke="#212121" stroke-width="1.0" stroke-linejoin="round" stroke-linecap="butt" d="m327.2126 237.40814l-15.376617 -147.19783" fill-rule="evenodd"/><path fill="#212121" stroke="#212121" stroke-width="1.0" stroke-linecap="butt" d="m313.47876 90.038704l-2.1142883 -4.341934l-1.1712952 4.68515z" fill-rule="evenodd"/><path fill="#000000" fill-opacity="0.0" d="m492.40683 291.0315l-47.77954 -102.96063" fill-rule="evenodd"/><path stroke="#212121" stroke-width="1.0" stroke-linejoin="round" stroke-linecap="butt" d="m492.40683 291.0315l-45.253906 -97.5181" fill-rule="evenodd"/><path fill="#212121" stroke="#212121" stroke-width="1.0" stroke-linecap="butt" d="m448.6512 192.81812l-3.4085388 -3.421173l0.4119873 4.811737z" fill-rule="evenodd"/><path fill="#000000" fill-opacity="0.0" d="m552.5617 121.64304l331.87396 0l0 54.92913l-331.87396 0z" fill-rule="evenodd"/><path fill="#212121" d="m571.90546 141.52179l-5.671875 17.28125l-4.578125 0l7.75 -20.84375l2.90625 0l-0.40625 3.5625zm4.703125 17.28125l-5.6875 -17.28125l-0.453125 -3.5625l2.9375 0l7.796875 20.84375l-4.59375 0zm-0.25 -7.765625l0 3.375l-11.015625 0l0 -3.375l11.015625 0zm17.150146 -13.078125l0 24.703125l-2.46875 0l0 -24.703125l2.46875 0zm19.75653 11.6875l-5.359375 0l-0.03125 -2.9375l4.5 0q1.1875 0 1.9375 -0.3125q0.765625 -0.3125 1.140625 -0.90625q0.390625 -0.59375 0.390625 -1.453125q0 -0.96875 -0.375 -1.5625q-0.359375 -0.609375 -1.125 -0.875q-0.765625 -0.28125 -1.96875 -0.28125l-2.984375 0l0 17.484375l-4.296875 0l0 -20.84375l7.28125 0q1.8125 0 3.25 0.34375q1.4375 0.34375 2.4375 1.046875q1.015625 0.6875 1.53125 1.765625q0.53125 1.0625 0.53125 2.515625q0 1.296875 -0.578125 2.390625q-0.578125 1.078125 -1.8125 1.765625q-1.234375 0.6875 -3.234375 0.765625l-1.234375 1.09375zm-0.1875 9.15625l-6.34375 0l1.671875 -3.34375l4.671875 0q1.125 0 1.84375 -0.359375q0.71875 -0.375 1.0625 -1.0q0.34375 -0.640625 0.34375 -1.453125q0 -0.921875 -0.3125 -1.59375q-0.3125 -0.671875 -0.984375 -1.03125q-0.671875 -0.375 -1.765625 -0.375l-4.140625 0l0.03125 -2.9375l5.140625 0l1.0 1.15625q1.90625 -0.03125 3.0625 0.671875q1.171875 0.6875 1.703125 1.796875q0.546875 1.09375 0.546875 2.359375q0 2.0 -0.875 3.375q-0.875 1.359375 -2.5625 2.046875q-1.671875 0.6875 -4.09375 0.6875z" fill-rule="nonzero"/><path fill="#000000" fill-opacity="0.0" d="m552.5617 149.1076l-98.33075 17.574814" fill-rule="evenodd"/><path stroke="#212121" stroke-width="1.0" stroke-linejoin="round" stroke-linecap="butt" d="m552.5617 149.1076l-98.33075 17.574814" fill-rule="evenodd"/><path fill="#000000" fill-opacity="0.0" d="m540.72705 376.98163l336.22046 0l0 54.92914l-336.22046 0z" fill-rule="evenodd"/><path fill="#212121" d="m560.0708 396.86038l-5.671875 17.28125l-4.578125 0l7.75 -20.84375l2.90625 0l-0.40625 3.5625zm4.703125 17.28125l-5.6875 -17.28125l-0.453125 -3.5625l2.9375 0l7.796875 20.84375l-4.59375 0zm-0.25 -7.765625l0 3.375l-11.015625 0l0 -3.375l11.015625 0zm17.087646 -3.390625l4.0 -2.59375q0.890625 -0.578125 1.1875 -1.125q0.296875 -0.546875 0.296875 -1.21875q0 -0.671875 -0.5 -1.25q-0.5 -0.578125 -1.390625 -0.578125q-0.65625 0 -1.09375 0.296875q-0.4375 0.28125 -0.671875 0.765625q-0.21875 0.484375 -0.21875 1.09375q0 0.640625 0.34375 1.3125q0.34375 0.65625 0.921875 1.40625q0.59375 0.734375 1.3125 1.59375l9.84375 11.453125l-4.6875 0l-8.015625 -9.28125q-1.015625 -1.265625 -1.78125 -2.3125q-0.75 -1.046875 -1.1875 -2.046875q-0.421875 -1.015625 -0.421875 -2.0625q0 -1.640625 0.6875 -2.859375q0.703125 -1.234375 1.984375 -1.90625q1.28125 -0.6875 2.984375 -0.6875q1.625 0 2.8125 0.671875q1.1875 0.671875 1.84375 1.765625q0.65625 1.078125 0.65625 2.375q0 0.984375 -0.359375 1.8125q-0.359375 0.8125 -1.0 1.515625q-0.625 0.6875 -1.4375 1.265625l-4.5625 3.265625q-0.53125 0.484375 -0.8125 0.953125q-0.265625 0.46875 -0.375 0.890625q-0.09375 0.421875 -0.09375 0.8125q0 0.828125 0.359375 1.484375q0.359375 0.65625 1.0 1.046875q0.640625 0.375 1.5 0.375q1.171875 0 2.28125 -0.515625q1.109375 -0.53125 1.96875 -1.5q0.875 -0.96875 1.390625 -2.296875q0.515625 -1.328125 0.515625 -2.9375l3.5 0q0 1.609375 -0.3125 3.046875q-0.3125 1.4375 -1.015625 2.671875q-0.703125 1.21875 -1.859375 2.15625q-0.09375 0.078125 -0.25 0.21875q-0.140625 0.125 -0.25 0.203125q-1.375 1.109375 -2.859375 1.640625q-1.484375 0.53125 -3.328125 0.53125q-2.078125 0 -3.609375 -0.75q-1.53125 -0.765625 -2.359375 -2.09375q-0.8125 -1.328125 -0.8125 -3.046875q0 -1.265625 0.484375 -2.203125q0.5 -0.9375 1.375 -1.734375q0.875 -0.8125 2.015625 -1.625zm31.704895 2.0l-5.359375 0l-0.03125 -2.9375l4.5 0q1.1875 0 1.9375 -0.3125q0.765625 -0.3125 1.140625 -0.90625q0.390625 -0.59375 0.390625 -1.453125q0 -0.96875 -0.375 -1.5625q-0.359375 -0.609375 -1.125 -0.875q-0.765625 -0.28125 -1.96875 -0.28125l-2.984375 0l0 17.484375l-4.296875 0l0 -20.84375l7.28125 0q1.8125 0 3.25 0.34375q1.4375 0.34375 2.4375 1.046875q1.015625 0.6875 1.53125 1.765625q0.53125 1.0625 0.53125 2.515625q0 1.296875 -0.578125 2.390625q-0.578125 1.078125 -1.8125 1.765625q-1.234375 0.6875 -3.234375 0.765625l-1.234375 1.09375zm-0.1875 9.15625l-6.34375 0l1.671875 -3.34375l4.671875 0q1.125 0 1.84375 -0.359375q0.71875 -0.375 1.0625 -1.0q0.34375 -0.640625 0.34375 -1.453125q0 -0.921875 -0.3125 -1.59375q-0.3125 -0.671875 -0.984375 -1.03125q-0.671875 -0.375 -1.765625 -0.375l-4.140625 0l0.03125 -2.9375l5.140625 0l1.0 1.15625q1.90625 -0.03125 3.0625 0.671875q1.171875 0.6875 1.703125 1.796875q0.546875 1.09375 0.546875 2.359375q0 2.0 -0.875 3.375q-0.875 1.359375 -2.5625 2.046875q-1.671875 0.6875 -4.09375 0.6875z" fill-rule="nonzero"/><path fill="#000000" fill-opacity="0.0" d="m540.72705 404.4462l-126.01578 -22.929138" fill-rule="evenodd"/><path stroke="#212121" stroke-width="1.0" stroke-linejoin="round" stroke-linecap="butt" d="m540.72705 404.4462l-126.01578 -22.929138" fill-rule="evenodd"/><path fill="#000000" fill-opacity="0.0" d="m286.73932 229.31323l0 0c6.9551086 -21.530045 30.046448 -33.343887 51.575897 -26.386993l175.26328 56.633575c10.338806 3.3408508 18.927368 10.652008 23.876282 20.325165c4.9489746 9.673157 5.852844 20.915924 2.5128784 31.255005l-2.498291 7.7336426l0 0c-6.955139 21.53003 -30.046448 33.343903 -51.575897 26.386993l-175.26328 -56.633575c-21.52948 -6.956909 -33.3443 -30.05014 -26.38919 -51.580185z" fill-rule="evenodd"/><path stroke="#212121" stroke-width="3.0" stroke-linejoin="round" stroke-linecap="butt" stroke-dasharray="12.0,9.0" d="m286.73932 229.31323l0 0c6.9551086 -21.530045 30.046448 -33.343887 51.575897 -26.386993l175.26328 56.633575c10.338806 3.3408508 18.927368 10.652008 23.876282 20.325165c4.9489746 9.673157 5.852844 20.915924 2.5128784 31.255005l-2.498291 7.7336426l0 0c-6.955139 21.53003 -30.046448 33.343903 -51.575897 26.386993l-175.26328 -56.633575c-21.52948 -6.956909 -33.3443 -30.05014 -26.38919 -51.580185z" fill-rule="evenodd"/><path fill="#000000" fill-opacity="0.0" d="m469.40683 40.755905l419.18112 0l0 54.92913l-419.18112 0z" fill-rule="evenodd"/><path fill="#212121" d="m489.17245 74.21278l0 -11.796879l4.125 0l0 15.500004l-3.875 0l-0.25 -3.703125zm0.46875 -3.1875l1.203125 -0.03125q0 1.546875 -0.359375 2.875q-0.34375 1.328125 -1.0625 2.296875q-0.71875 0.96875 -1.8125 1.5q-1.078125 0.53125 -2.5625 0.53125q-1.125 0 -2.078125 -0.3125q-0.953125 -0.328125 -1.640625 -1.015625q-0.671875 -0.703125 -1.0625 -1.796875q-0.375 -1.09375 -0.375 -2.640625l0 -10.015629l4.125 0l0 10.046879q0 0.6875 0.15625 1.15625q0.171875 0.46875 0.46875 0.78125q0.3125 0.296875 0.71875 0.421875q0.40625 0.125 0.90625 0.125q1.28125 0 2.015625 -0.515625q0.734375 -0.515625 1.046875 -1.40625q0.3125 -0.890625 0.3125 -2.0zm10.831726 -5.296875l0 12.1875l-4.125 0l0 -15.500004l3.875 0l0.25 3.3125038zm-0.59375 3.890625l-1.125 0q0 -1.71875 0.4375 -3.09375q0.453125 -1.390625 1.25 -2.359375q0.8125 -0.9843788 1.921875 -1.5000038q1.109375 -0.53125 2.484375 -0.53125q1.078125 0 1.984375 0.3125q0.90625 0.3125 1.546875 1.0q0.65625 0.6875038 1.0 1.8281288q0.359375 1.125 0.359375 2.765625l0 9.875l-4.15625 0l0 -9.890625q0 -1.03125 -0.28125 -1.609375q-0.28125 -0.578125 -0.84375 -0.8125q-0.546875 -0.234375 -1.34375 -0.234375q-0.828125 0 -1.4375 0.328125q-0.609375 0.328125 -1.015625 0.921875q-0.390625 0.578125 -0.59375 1.359375q-0.1875 0.765625 -0.1875 1.640625zm17.127289 -13.718754l0 22.015629l-4.125 0l0 -22.015629l4.125 0zm9.765625 6.515625l-6.734375 7.687504l-3.609375 3.640625l-1.5 -2.96875l2.859375 -3.640625l4.03125 -4.718754l4.953125 0zm-4.28125 15.500004l-4.59375 -7.15625l2.859375 -2.5l6.484375 9.65625l-4.75 0zm10.088379 -12.1875l0 12.1875l-4.125 0l0 -15.500004l3.875 0l0.25 3.3125038zm-0.59375 3.890625l-1.125 0q0 -1.71875 0.4375 -3.09375q0.453125 -1.390625 1.25 -2.359375q0.8125 -0.9843788 1.921875 -1.5000038q1.109375 -0.53125 2.484375 -0.53125q1.078125 0 1.984375 0.3125q0.90625 0.3125 1.546875 1.0q0.65625 0.6875038 1.0 1.8281288q0.359375 1.125 0.359375 2.765625l0 9.875l-4.15625 0l0 -9.890625q0 -1.03125 -0.28125 -1.609375q-0.28125 -0.578125 -0.84375 -0.8125q-0.546875 -0.234375 -1.34375 -0.234375q-0.828125 0 -1.4375 0.328125q-0.609375 0.328125 -1.015625 0.921875q-0.390625 0.578125 -0.59375 1.359375q-0.1875 0.765625 -0.1875 1.640625zm12.330383 0.703125l0 -0.296875q0 -1.703125 0.484375 -3.140625q0.5 -1.4375 1.421875 -2.5q0.9375 -1.0625038 2.296875 -1.6562538q1.359375 -0.59375 3.125 -0.59375q1.765625 0 3.140625 0.59375q1.375 0.59375 2.3125 1.6562538q0.9375 1.0625 1.421875 2.5q0.484375 1.4375 0.484375 3.140625l0 0.296875q0 1.6875 -0.484375 3.140625q-0.484375 1.4375 -1.421875 2.5q-0.9375 1.0625 -2.3125 1.65625q-1.359375 0.578125 -3.109375 0.578125q-1.765625 0 -3.140625 -0.578125q-1.359375 -0.59375 -2.296875 -1.65625q-0.9375 -1.0625 -1.4375 -2.5q-0.484375 -1.453125 -0.484375 -3.140625zm4.125 -0.296875l0 0.296875q0 0.984375 0.171875 1.828125q0.171875 0.84375 0.546875 1.484375q0.390625 0.625 1.0 0.984375q0.625 0.359375 1.515625 0.359375q0.859375 0 1.46875 -0.359375q0.609375 -0.359375 0.984375 -0.984375q0.375 -0.640625 0.546875 -1.484375q0.1875 -0.84375 0.1875 -1.828125l0 -0.296875q0 -0.9375 -0.1875 -1.78125q-0.171875 -0.84375 -0.546875 -1.484375q-0.375 -0.65625 -1.0 -1.03125q-0.609375 -0.375 -1.484375 -0.375q-0.875 0 -1.484375 0.375q-0.609375 0.375 -1.0 1.03125q-0.375 0.640625 -0.546875 1.484375q-0.171875 0.84375 -0.171875 1.78125zm17.523132 3.875l3.21875 -11.484379l2.625 0l-0.84375 4.515629l-3.234375 10.984375l-2.1875 0l0.421875 -4.015625zm-1.640625 -11.484379l2.3125 11.468754l0.21875 4.03125l-2.578125 0l-3.921875 -15.500004l3.96875 0zm10.4375 11.296879l2.234375 -11.296879l4.0 0l-3.921875 15.500004l-2.5625 0l0.25 -4.203125zm-2.59375 -11.296879l3.203125 11.406254l0.4375 4.09375l-2.203125 0l-3.21875 -10.96875l-0.8125 -4.531254l2.59375 0zm14.944092 3.3125038l0 12.1875l-4.125 0l0 -15.500004l3.875 0l0.25 3.3125038zm-0.59375 3.890625l-1.125 0q0 -1.71875 0.4375 -3.09375q0.453125 -1.390625 1.25 -2.359375q0.8125 -0.9843788 1.921875 -1.5000038q1.109375 -0.53125 2.484375 -0.53125q1.078125 0 1.984375 0.3125q0.90625 0.3125 1.546875 1.0q0.65625 0.6875038 1.0 1.8281288q0.359375 1.125 0.359375 2.765625l0 9.875l-4.15625 0l0 -9.890625q0 -1.03125 -0.28125 -1.609375q-0.28125 -0.578125 -0.84375 -0.8125q-0.546875 -0.234375 -1.34375 -0.234375q-0.828125 0 -1.4375 0.328125q-0.609375 0.328125 -1.015625 0.921875q-0.390625 0.578125 -0.59375 1.359375q-0.1875 0.765625 -0.1875 1.640625z" fill-rule="nonzero"/><path fill="#000000" fill-opacity="0.0" d="m469.39896 68.2336l-144.59842 3.464569" fill-rule="evenodd"/><path stroke="#212121" stroke-width="1.0" stroke-linejoin="round" stroke-linecap="butt" d="m469.39896 68.2336l-144.59842 3.464569" fill-rule="evenodd"/><path fill="#000000" fill-opacity="0.0" d="m502.03937 451.03412l280.9134 0l0 54.92914l-280.9134 0z" fill-rule="evenodd"/><path fill="#212121" d="m516.68 476.00662l0 12.1875l-4.125 0l0 -15.5l3.875 0l0.25 3.3125zm-0.59375 3.890625l-1.125 0q0 -1.71875 0.4375 -3.09375q0.453125 -1.390625 1.25 -2.359375q0.8125 -0.984375 1.921875 -1.5q1.109375 -0.53125 2.484375 -0.53125q1.078125 0 1.984375 0.3125q0.90625 0.3125 1.546875 1.0q0.65625 0.6875 1.0 1.828125q0.359375 1.125 0.359375 2.765625l0 9.875l-4.15625 0l0 -9.890625q0 -1.03125 -0.28125 -1.609375q-0.28125 -0.578125 -0.84375 -0.8125q-0.546875 -0.234375 -1.34375 -0.234375q-0.828125 0 -1.4375 0.328125q-0.609375 0.328125 -1.015625 0.921875q-0.390625 0.578125 -0.59375 1.359375q-0.1875 0.765625 -0.1875 1.640625zm20.12732 8.578125q-1.796875 0 -3.234375 -0.578125q-1.4375 -0.578125 -2.4375 -1.609375q-0.984375 -1.03125 -1.515625 -2.390625q-0.53125 -1.375 -0.53125 -2.921875l0 -0.578125q0 -1.75 0.5 -3.203125q0.5 -1.46875 1.4375 -2.546875q0.9375 -1.078125 2.28125 -1.65625q1.359375 -0.578125 3.046875 -0.578125q1.640625 0 2.90625 0.546875q1.28125 0.546875 2.140625 1.546875q0.875 1.0 1.3125 2.40625q0.453125 1.390625 0.453125 3.09375l0 1.71875l-12.3125 0l0 -2.75l8.265625 0l0 -0.3125q0 -0.859375 -0.3125 -1.53125q-0.3125 -0.6875 -0.9375 -1.09375q-0.609375 -0.40625 -1.5625 -0.40625q-0.8125 0 -1.40625 0.359375q-0.578125 0.359375 -0.953125 1.015625q-0.359375 0.640625 -0.546875 1.5q-0.171875 0.859375 -0.171875 1.890625l0 0.578125q0 0.9375 0.265625 1.71875q0.265625 0.78125 0.75 1.359375q0.5 0.578125 1.203125 0.890625q0.71875 0.3125 1.625 0.3125q1.109375 0 2.078125 -0.4375q0.96875 -0.4375 1.671875 -1.328125l2.0 2.1875q-0.484375 0.703125 -1.328125 1.34375q-0.828125 0.640625 -2.015625 1.046875q-1.171875 0.40625 -2.671875 0.40625zm13.792725 -3.28125l3.4375 -12.5l4.3125 0l-5.234375 15.5l-2.609375 0l0.09375 -3.0zm-2.359375 -12.5l3.453125 12.5l0.0625 3.0l-2.625 0l-5.21875 -15.5l4.328125 0zm18.882812 15.78125q-1.796875 0 -3.234375 -0.578125q-1.4375 -0.578125 -2.4375 -1.609375q-0.984375 -1.03125 -1.515625 -2.390625q-0.53125 -1.375 -0.53125 -2.921875l0 -0.578125q0 -1.75 0.5 -3.203125q0.5 -1.46875 1.4375 -2.546875q0.9375 -1.078125 2.28125 -1.65625q1.359375 -0.578125 3.046875 -0.578125q1.640625 0 2.90625 0.546875q1.28125 0.546875 2.140625 1.546875q0.875 1.0 1.3125 2.40625q0.453125 1.390625 0.453125 3.09375l0 1.71875l-12.3125 0l0 -2.75l8.265625 0l0 -0.3125q0 -0.859375 -0.3125 -1.53125q-0.3125 -0.6875 -0.9375 -1.09375q-0.609375 -0.40625 -1.5625 -0.40625q-0.8125 0 -1.40625 0.359375q-0.578125 0.359375 -0.953125 1.015625q-0.359375 0.640625 -0.546875 1.5q-0.171875 0.859375 -0.171875 1.890625l0 0.578125q0 0.9375 0.265625 1.71875q0.265625 0.78125 0.75 1.359375q0.5 0.578125 1.203125 0.890625q0.71875 0.3125 1.625 0.3125q1.109375 0 2.078125 -0.4375q0.96875 -0.4375 1.671875 -1.328125l2.0 2.1875q-0.484375 0.703125 -1.328125 1.34375q-0.828125 0.640625 -2.015625 1.046875q-1.171875 0.40625 -2.671875 0.40625zm12.838318 -12.390625l0 12.109375l-4.125 0l0 -15.5l3.875 0l0.25 3.390625zm4.65625 -3.484375l-0.0625 3.828125q-0.296875 -0.046875 -0.734375 -0.078125q-0.421875 -0.046875 -0.765625 -0.046875q-0.859375 0 -1.5 0.234375q-0.640625 0.21875 -1.0625 0.640625q-0.421875 0.421875 -0.640625 1.046875q-0.203125 0.625 -0.21875 1.40625l-0.84375 -0.265625q0 -1.5 0.296875 -2.765625q0.3125 -1.265625 0.890625 -2.203125q0.578125 -0.953125 1.421875 -1.46875q0.84375 -0.515625 1.9375 -0.515625q0.34375 0 0.703125 0.046875q0.359375 0.046875 0.578125 0.140625z" fill-rule="nonzero"/><path fill="#000000" fill-opacity="0.0" d="m502.03937 478.4987l-150.04724 -17.417328" fill-rule="evenodd"/><path stroke="#212121" stroke-width="1.0" stroke-linejoin="round" stroke-linecap="butt" d="m502.03937 478.4987l-150.04724 -17.417328" fill-rule="evenodd"/><path fill="#000000" fill-opacity="0.0" d="m349.30972 235.92914l63.62204 0l0 54.92914l-63.62204 0z" fill-rule="evenodd"/><path fill="#212121" d="m368.65347 255.80788l-5.671875 17.281265l-4.578125 0l7.75 -20.843765l2.90625 0l-0.40625 3.5625zm4.703125 17.281265l-5.6875 -17.281265l-0.453125 -3.5625l2.9375 0l7.796875 20.843765l-4.59375 0zm-0.25 -7.765625l0 3.375l-11.015625 0l0 -3.375l11.015625 0z" fill-rule="nonzero"/><path fill="#000000" fill-opacity="0.0" d="m544.47504 281.3937l63.62207 0l0 54.92914l-63.62207 0z" fill-rule="evenodd"/><path fill="#212121" d="m563.5063 309.39746l-5.359375 0l-0.03125 -2.9375l4.5 0q1.1875 0 1.9375 -0.3125q0.765625 -0.3125 1.140625 -0.90625q0.390625 -0.59375 0.390625 -1.453125q0 -0.96875 -0.375 -1.5625q-0.359375 -0.609375 -1.125 -0.875q-0.765625 -0.28125 -1.96875 -0.28125l-2.984375 0l0 17.484375l-4.296875 0l0 -20.84375l7.28125 0q1.8125 0 3.25 0.34375q1.4375 0.34375 2.4375 1.046875q1.015625 0.6875 1.53125 1.765625q0.53125 1.0625 0.53125 2.515625q0 1.296875 -0.578125 2.390625q-0.578125 1.078125 -1.8125 1.765625q-1.234375 0.6875 -3.234375 0.765625l-1.234375 1.09375zm-0.1875 9.15625l-6.34375 0l1.671875 -3.34375l4.671875 0q1.125 0 1.84375 -0.359375q0.71875 -0.375 1.0625 -1.0q0.34375 -0.640625 0.34375 -1.453125q0 -0.921875 -0.3125 -1.59375q-0.3125 -0.671875 -0.984375 -1.03125q-0.671875 -0.375 -1.765625 -0.375l-4.140625 0l0.03125 -2.9375l5.140625 0l1.0 1.15625q1.90625 -0.03125 3.0625 0.671875q1.171875 0.6875 1.703125 1.796875q0.546875 1.09375 0.546875 2.359375q0 2.0 -0.875 3.375q-0.875 1.359375 -2.5625 2.046875q-1.671875 0.6875 -4.09375 0.6875z" fill-rule="nonzero"/></g></svg>